<!DOCTYPE svg PUBLIC "-//W3C//DTD SVG 20010904//EN" "http://www.w3.org/TR/2001/REC-SVG-20010904/DTD/svg10.dtd">
<svg version="1.0" xmlns="http://www.w3.org/2000/svg" width="1195px" height="396px" viewBox="0 0 11950 3960" preserveAspectRatio="xMidYMid meet">
<g id="layer1" fill="#7c6b39" stroke="none">
 <path d="M824 2847 c-9 -24 -1 -52 16 -52 10 0 14 8 12 25 -5 33 -20 48 -28 27z"/>
 <path d="M1505 2820 c-10 -17 12 -37 25 -24 8 8 6 15 -4 23 -10 9 -16 9 -21 1z"/>
 <path d="M2015 2820 c-10 -17 12 -37 25 -24 8 8 6 15 -4 23 -10 9 -16 9 -21 1z"/>
 <path d="M2295 2820 c-10 -17 12 -37 25 -24 8 8 6 15 -4 23 -10 9 -16 9 -21 1z"/>
 <path d="M3255 2820 c-10 -17 12 -37 25 -24 8 8 6 15 -4 23 -10 9 -16 9 -21 1z"/>
 <path d="M3535 2820 c-10 -17 12 -37 25 -24 8 8 6 15 -4 23 -10 9 -16 9 -21 1z"/>
 <path d="M938 2815 c-2 -3 -2 -22 1 -43 8 -47 38 -53 33 -7 -4 30 -24 60 -34 50z"/>
 <path d="M4105 2810 c-11 -17 5 -32 21 -19 7 6 11 15 8 20 -7 12 -21 11 -29 -1z"/>
 <path d="M4725 2810 c-11 -17 5 -32 21 -19 7 6 11 15 8 20 -7 12 -21 11 -29 -1z"/>
 <path d="M8046 2811 c-3 -5 1 -14 8 -20 16 -13 32 2 21 19 -8 12 -22 13 -29 1z"/>
 <path d="M8436 2811 c-3 -5 1 -14 8 -20 16 -13 32 2 21 19 -8 12 -22 13 -29 1z"/>
 <path d="M1565 2760 c-10 -17 12 -37 25 -24 8 8 6 15 -4 23 -10 9 -16 9 -21 1z"/>
 <path d="M2075 2760 c-10 -17 12 -37 25 -24 8 8 6 15 -4 23 -10 9 -16 9 -21 1z"/>
 <path d="M2355 2760 c-10 -17 12 -37 25 -24 8 8 6 15 -4 23 -10 9 -16 9 -21 1z"/>
 <path d="M2465 2760 c-10 -17 12 -37 25 -24 8 8 6 15 -4 23 -10 9 -16 9 -21 1z"/>
 <path d="M2805 2760 c-10 -17 12 -37 25 -24 8 8 6 15 -4 23 -10 9 -16 9 -21 1z"/>
 <path d="M3365 2760 c-10 -17 12 -37 25 -24 8 8 6 15 -4 23 -10 9 -16 9 -21 1z"/>
 <path d="M6695 2760 c-10 -17 12 -37 25 -24 8 8 6 15 -4 23 -10 9 -16 9 -21 1z"/>
 <path d="M1122 2747 c-5 -6 -12 -25 -14 -42 -5 -47 25 -39 33 8 6 40 -2 55 -19 34z"/>
 <path d="M1845 2750 c-11 -17 5 -32 21 -19 7 6 11 15 8 20 -7 12 -21 11 -29 -1z"/>
 <path d="M2245 2750 c-11 -17 5 -32 21 -19 7 6 11 15 8 20 -7 12 -21 11 -29 -1z"/>
 <path d="M3145 2750 c-11 -17 5 -32 21 -19 7 6 11 15 8 20 -7 12 -21 11 -29 -1z"/>
 <path d="M4045 2750 c-11 -17 5 -32 21 -19 7 6 11 15 8 20 -7 12 -21 11 -29 -1z"/>
 <path d="M4665 2750 c-11 -17 5 -32 21 -19 7 6 11 15 8 20 -7 12 -21 11 -29 -1z"/>
 <path d="M7306 2751 c-3 -5 1 -14 8 -20 16 -13 32 2 21 19 -8 12 -22 13 -29 1z"/>
 <path d="M7596 2751 c-3 -5 1 -14 8 -20 16 -13 32 2 21 19 -8 12 -22 13 -29 1z"/>
 <path d="M8096 2751 c-3 -5 1 -14 8 -20 16 -13 32 2 21 19 -8 12 -22 13 -29 1z"/>
 <path d="M8496 2751 c-3 -5 1 -14 8 -20 16 -13 32 2 21 19 -8 12 -22 13 -29 1z"/>
 <path d="M1615 2700 c-10 -17 12 -37 25 -24 8 8 6 15 -4 23 -10 9 -16 9 -21 1z"/>
 <path d="M1845 2700 c-10 -17 12 -37 25 -24 8 8 6 15 -4 23 -10 9 -16 9 -21 1z"/>
 <path d="M3145 2700 c-10 -17 12 -37 25 -24 8 8 6 15 -4 23 -10 9 -16 9 -21 1z"/>
 <path d="M6755 2700 c-10 -17 12 -37 25 -24 8 8 6 15 -4 23 -10 9 -16 9 -21 1z"/>
 <path d="M1060 2685 c-15 -18 -9 -60 9 -60 9 0 14 12 15 33 1 39 -7 48 -24 27z"/>
 <path d="M4615 2690 c-11 -17 5 -32 21 -19 7 6 11 15 8 20 -7 12 -21 11 -29 -1z"/>
 <path d="M6644 2689 c-10 -17 7 -31 22 -18 11 9 17 9 28 0 10 -9 16 -9 21 -1 4 6 4 14 0 18 -10 10 -65 11 -71 1z"/>
 <path d="M7366 2691 c-3 -5 1 -14 8 -20 16 -13 32 2 21 19 -8 12 -22 13 -29 1z"/>
 <path d="M7646 2691 c-3 -5 1 -14 8 -20 16 -13 32 2 21 19 -8 12 -22 13 -29 1z"/>
 <path d="M8156 2691 c-3 -5 1 -14 8 -20 16 -13 32 2 21 19 -8 12 -22 13 -29 1z"/>
 <path d="M8556 2691 c-3 -5 1 -14 8 -20 16 -13 32 2 21 19 -8 12 -22 13 -29 1z"/>
 <path d="M8726 2691 c-3 -5 1 -14 8 -20 16 -13 32 2 21 19 -8 12 -22 13 -29 1z"/>
 <path d="M1675 2650 c-10 -17 12 -37 25 -24 8 8 6 15 -4 23 -10 9 -16 9 -21 1z"/>
 <path d="M2525 2650 c-10 -17 12 -37 25 -24 8 8 6 15 -4 23 -10 9 -16 9 -21 1z"/>
 <path d="M2865 2650 c-10 -17 12 -37 25 -24 8 8 6 15 -4 23 -10 9 -16 9 -21 1z"/>
 <path d="M6815 2650 c-10 -17 12 -37 25 -24 8 8 6 15 -4 23 -10 9 -16 9 -21 1z"/>
 <path d="M1109 2646 c-2 -2 -2 -35 1 -73 5 -63 7 -68 27 -66 17 2 22 -3 25 -25 2 -16 9 -27 18 -27 10 0 14 8 12 25 -5 33 -20 50 -38 43 -11 -4 -14 6 -14 50 0 33 -5 59 -13 66 -8 6 -16 9 -18 7z"/>
 <path d="M3595 2640 c-11 -17 5 -32 21 -19 7 6 11 15 8 20 -7 12 -21 11 -29 -1z"/>
 <path d="M6075 2640 c-11 -17 5 -32 21 -19 7 6 11 15 8 20 -7 12 -21 11 -29 -1z"/>
 <path d="M6186 2641 c-3 -5 1 -14 8 -20 16 -13 32 2 21 19 -8 12 -22 13 -29 1z"/>
 <path d="M6746 2641 c-3 -5 1 -14 8 -20 16 -13 32 2 21 19 -8 12 -22 13 -29 1z"/>
 <path d="M7426 2641 c-3 -5 1 -14 8 -20 16 -13 32 2 21 19 -8 12 -22 13 -29 1z"/>
 <path d="M8216 2641 c-3 -5 1 -14 8 -20 16 -13 32 2 21 19 -8 12 -22 13 -29 1z"/>
 <path d="M1905 2590 c-10 -17 12 -37 25 -24 8 8 6 15 -4 23 -10 9 -16 9 -21 1z"/>
 <path d="M6865 2590 c-10 -17 12 -37 25 -24 8 8 6 15 -4 23 -10 9 -16 9 -21 1z"/>
 <path d="M3535 2580 c-11 -17 5 -32 21 -19 7 6 11 15 8 20 -7 12 -21 11 -29 -1z"/>
 <path d="M6806 2581 c-3 -5 1 -14 8 -20 16 -13 32 2 21 19 -8 12 -22 13 -29 1z"/>
 <path d="M2575 2530 c-10 -17 12 -37 25 -24 8 8 6 15 -4 23 -10 9 -16 9 -21 1z"/>
 <path d="M3195 2530 c-10 -17 12 -37 25 -24 8 8 6 15 -4 23 -10 9 -16 9 -21 1z"/>
 <path d="M3535 2530 c-10 -17 12 -37 25 -24 8 8 6 15 -4 23 -10 9 -16 9 -21 1z"/>
 <path d="M3825 2530 c-10 -17 12 -37 25 -24 8 8 6 15 -4 23 -10 9 -16 9 -21 1z"/>
 <path d="M6925 2530 c-10 -17 12 -37 25 -24 8 8 6 15 -4 23 -10 9 -16 9 -21 1z"/>
 <path d="M6236 2521 c-3 -5 1 -14 8 -20 16 -13 32 2 21 19 -8 12 -22 13 -29 1z"/>
 <path d="M6856 2521 c-3 -5 1 -14 8 -20 16 -13 32 2 21 19 -8 12 -22 13 -29 1z"/>
 <path d="M7476 2521 c-3 -5 1 -14 8 -20 16 -13 32 2 21 19 -8 12 -22 13 -29 1z"/>
 <path d="M8776 2521 c-3 -5 1 -14 8 -20 16 -13 32 2 21 19 -8 12 -22 13 -29 1z"/>
 <path d="M1955 2480 c-10 -17 12 -37 25 -24 8 8 6 15 -4 23 -10 9 -16 9 -21 1z"/>
 <path d="M2245 2480 c-10 -17 12 -37 25 -24 8 8 6 15 -4 23 -10 9 -16 9 -21 1z"/>
 <path d="M3875 2480 c-10 -17 12 -37 25 -24 8 8 6 15 -4 23 -10 9 -16 9 -21 1z"/>
 <path d="M1219 2476 c-2 -2 -2 -46 1 -98 4 -71 8 -93 19 -93 19 0 16 164 -3 183 -7 7 -14 11 -17 8z"/>
 <path d="M6296 2471 c-3 -5 1 -14 8 -20 16 -13 32 2 21 19 -8 12 -22 13 -29 1z"/>
 <path d="M8266 2471 c-3 -5 1 -14 8 -20 16 -13 32 2 21 19 -8 12 -22 13 -29 1z"/>
 <path d="M8436 2471 c-3 -5 1 -14 8 -20 16 -13 32 2 21 19 -8 12 -22 13 -29 1z"/>
 <path d="M1735 2420 c-10 -17 12 -37 25 -24 8 8 6 15 -4 23 -10 9 -16 9 -21 1z"/>
 <path d="M2015 2420 c-10 -17 12 -37 25 -24 8 8 6 15 -4 23 -10 9 -16 9 -21 1z"/>
 <path d="M2635 2420 c-10 -17 12 -37 25 -24 8 8 6 15 -4 23 -10 9 -16 9 -21 1z"/>
 <path d="M2915 2420 c-10 -17 12 -37 25 -24 8 8 6 15 -4 23 -10 9 -16 9 -21 1z"/>
 <path d="M4665 2420 c-10 -17 12 -37 25 -24 8 8 6 15 -4 23 -10 9 -16 9 -21 1z"/>
 <path d="M6916 2411 c-3 -5 1 -14 8 -20 16 -13 32 2 21 19 -8 12 -22 13 -29 1z"/>
 <path d="M7536 2411 c-3 -5 1 -14 8 -20 16 -13 32 2 21 19 -8 12 -22 13 -29 1z"/>
 <path d="M7936 2411 c-3 -5 1 -14 8 -20 16 -13 32 2 21 19 -8 12 -22 13 -29 1z"/>
 <path d="M8496 2411 c-3 -5 1 -14 8 -20 16 -13 32 2 21 19 -8 12 -22 13 -29 1z"/>
 <path d="M2075 2370 c-10 -17 12 -37 25 -24 8 8 6 15 -4 23 -10 9 -16 9 -21 1z"/>
 <path d="M2295 2370 c-10 -17 12 -37 25 -24 8 8 6 15 -4 23 -10 9 -16 9 -21 1z"/>
 <path d="M2695 2370 c-10 -17 12 -37 25 -24 8 8 6 15 -4 23 -10 9 -16 9 -21 1z"/>
 <path d="M2975 2370 c-10 -17 12 -37 25 -24 8 8 6 15 -4 23 -10 9 -16 9 -21 1z"/>
 <path d="M3255 2370 c-10 -17 12 -37 25 -24 8 8 6 15 -4 23 -10 9 -16 9 -21 1z"/>
 <path d="M4725 2370 c-10 -17 12 -37 25 -24 8 8 6 15 -4 23 -10 9 -16 9 -21 1z"/>
 <path d="M1675 2360 c-11 -17 5 -32 21 -19 7 6 11 15 8 20 -7 12 -21 11 -29 -1z"/>
 <path d="M6066 2361 c-3 -5 1 -14 8 -20 16 -13 32 2 21 19 -8 12 -22 13 -29 1z"/>
 <path d="M6346 2361 c-3 -5 1 -14 8 -20 16 -13 32 2 21 19 -8 12 -22 13 -29 1z"/>
 <path d="M6976 2361 c-3 -5 1 -14 8 -20 16 -13 32 2 21 19 -8 12 -22 13 -29 1z"/>
 <path d="M8326 2361 c-3 -5 1 -14 8 -20 16 -13 32 2 21 19 -8 12 -22 13 -29 1z"/>
 <path d="M8556 2361 c-3 -5 1 -14 8 -20 16 -13 32 2 21 19 -8 12 -22 13 -29 1z"/>
 <path d="M8836 2361 c-3 -5 1 -14 8 -20 16 -13 32 2 21 19 -8 12 -22 13 -29 1z"/>
 <path d="M2125 2310 c-10 -17 12 -37 25 -24 8 8 6 15 -4 23 -10 9 -16 9 -21 1z"/>
 <path d="M3035 2310 c-10 -17 12 -37 25 -24 8 8 6 15 -4 23 -10 9 -16 9 -21 1z"/>
 <path d="M3595 2310 c-10 -17 12 -37 25 -24 8 8 6 15 -4 23 -10 9 -16 9 -21 1z"/>
 <path d="M4775 2310 c-10 -17 12 -37 25 -24 8 8 6 15 -4 23 -10 9 -16 9 -21 1z"/>
 <path d="M1615 2300 c-11 -17 5 -32 21 -19 7 6 11 15 8 20 -7 12 -21 11 -29 -1z"/>
 <path d="M6406 2301 c-3 -5 1 -14 8 -20 16 -13 32 2 21 19 -8 12 -22 13 -29 1z"/>
 <path d="M7026 2301 c-3 -5 1 -14 8 -20 16 -13 32 2 21 19 -8 12 -22 13 -29 1z"/>
 <path d="M8386 2301 c-3 -5 1 -14 8 -20 16 -13 32 2 21 19 -8 12 -22 13 -29 1z"/>
 <path d="M8606 2301 c-3 -5 1 -14 8 -20 16 -13 32 2 21 19 -8 12 -22 13 -29 1z"/>
 <path d="M2185 2250 c-10 -17 12 -37 25 -24 8 8 6 15 -4 23 -10 9 -16 9 -21 1z"/>
 <path d="M2745 2250 c-10 -17 12 -37 25 -24 8 8 6 15 -4 23 -10 9 -16 9 -21 1z"/>
 <path d="M3145 2250 c-10 -17 12 -37 25 -24 8 8 6 15 -4 23 -10 9 -16 9 -21 1z"/>
 <path d="M3315 2250 c-10 -17 12 -37 25 -24 8 8 6 15 -4 23 -10 9 -16 9 -21 1z"/>
 <path d="M3655 2250 c-10 -17 12 -37 25 -24 8 8 6 15 -4 23 -10 9 -16 9 -21 1z"/>
 <path d="M4835 2250 c-10 -17 12 -37 25 -24 8 8 6 15 -4 23 -10 9 -16 9 -21 1z"/>
 <path d="M8611 2246 c-9 -10 -9 -16 -1 -21 17 -10 37 12 24 25 -8 8 -15 6 -23 -4z"/>
 <path d="M9181 2246 c-9 -10 -9 -16 -1 -21 17 -10 37 12 24 25 -8 8 -15 6 -23 -4z"/>
 <path d="M938 2245 c-3 -3 -2 -20 2 -38 5 -25 11 -31 28 -30 17 2 21 -4 24 -30 2 -20 8 -32 18 -32 11 0 14 8 12 30 -5 37 -19 56 -38 48 -9 -3 -14 2 -14 15 0 20 -23 46 -32 37z"/>
 <path d="M2299 2248 c-6 -15 -5 -70 2 -74 17 -10 31 7 18 22 -8 10 -9 18 0 27 6 8 8 17 4 20 -6 7 -22 9 -24 5z"/>
 <path d="M2975 2240 c-11 -17 5 -32 21 -19 7 6 11 15 8 20 -7 12 -21 11 -29 -1z"/>
 <path d="M4495 2240 c-11 -17 5 -32 21 -19 7 6 11 15 8 20 -7 12 -21 11 -29 -1z"/>
 <path d="M7986 2241 c-3 -5 1 -14 8 -20 16 -13 32 2 21 19 -8 12 -22 13 -29 1z"/>
 <path d="M8436 2241 c-3 -5 1 -14 8 -20 16 -13 32 2 21 19 -8 12 -22 13 -29 1z"/>
 <path d="M8886 2241 c-3 -5 1 -14 8 -20 16 -13 32 2 21 19 -8 12 -22 13 -29 1z"/>
 <path d="M1615 2200 c-10 -17 12 -37 25 -24 8 8 6 15 -4 23 -10 9 -16 9 -21 1z"/>
 <path d="M4895 2200 c-10 -17 12 -37 25 -24 8 8 6 15 -4 23 -10 9 -16 9 -21 1z"/>
 <path d="M5685 2200 c-10 -17 12 -37 25 -24 8 8 6 15 -4 23 -10 9 -16 9 -21 1z"/>
 <path d="M6581 2196 c-9 -10 -9 -16 -1 -21 17 -10 37 12 24 25 -8 8 -15 6 -23 -4z"/>
 <path d="M3875 2190 c-11 -17 5 -32 21 -19 7 6 11 15 8 20 -7 12 -21 11 -29 -1z"/>
 <path d="M5065 2190 c-11 -17 5 -32 21 -19 7 6 11 15 8 20 -7 12 -21 11 -29 -1z"/>
 <path d="M6466 2191 c-3 -5 1 -14 8 -20 16 -13 32 2 21 19 -8 12 -22 13 -29 1z"/>
 <path d="M7086 2191 c-3 -5 1 -14 8 -20 16 -13 32 2 21 19 -8 12 -22 13 -29 1z"/>
 <path d="M8496 2191 c-3 -5 1 -14 8 -20 16 -13 32 2 21 19 -8 12 -22 13 -29 1z"/>
 <path d="M1285 2140 c-10 -17 12 -37 25 -24 8 8 6 15 -4 23 -10 9 -16 9 -21 1z"/>
 <path d="M1675 2140 c-10 -17 12 -37 25 -24 8 8 6 15 -4 23 -10 9 -16 9 -21 1z"/>
 <path d="M1048 2135 c-2 -3 -2 -22 1 -43 8 -47 38 -53 33 -7 -4 30 -24 60 -34 50z"/>
 <path d="M3315 2130 c-11 -17 5 -32 21 -19 7 6 11 15 8 20 -7 12 -21 11 -29 -1z"/>
 <path d="M3655 2130 c-11 -17 5 -32 21 -19 7 6 11 15 8 20 -7 12 -21 11 -29 -1z"/>
 <path d="M4385 2130 c-11 -17 5 -32 21 -19 7 6 11 15 8 20 -7 12 -21 11 -29 -1z"/>
 <path d="M5005 2130 c-11 -17 5 -32 21 -19 7 6 11 15 8 20 -7 12 -21 11 -29 -1z"/>
 <path d="M6516 2131 c-3 -5 1 -14 8 -20 16 -13 32 2 21 19 -8 12 -22 13 -29 1z"/>
 <path d="M7146 2131 c-3 -5 1 -14 8 -20 16 -13 32 2 21 19 -8 12 -22 13 -29 1z"/>
 <path d="M8046 2131 c-3 -5 1 -14 8 -20 16 -13 32 2 21 19 -8 12 -22 13 -29 1z"/>
 <path d="M1735 2080 c-10 -17 12 -37 25 -24 8 8 6 15 -4 23 -10 9 -16 9 -21 1z"/>
 <path d="M5735 2080 c-10 -17 12 -37 25 -24 8 8 6 15 -4 23 -10 9 -16 9 -21 1z"/>
 <path d="M1108 2075 c-3 -3 -2 -20 2 -38 5 -25 11 -31 28 -30 17 2 21 -4 24 -30 2 -20 8 -32 18 -32 11 0 14 8 12 30 -5 37 -19 56 -38 48 -9 -3 -14 2 -14 15 0 20 -23 46 -32 37z"/>
 <path d="M5676 2071 c-3 -5 1 -14 8 -20 16 -13 32 2 21 19 -8 12 -22 13 -29 1z"/>
 <path d="M1335 2030 c-10 -17 12 -37 25 -24 8 8 6 15 -4 23 -10 9 -16 9 -21 1z"/>
 <path d="M1785 2030 c-10 -17 12 -37 25 -24 8 8 6 15 -4 23 -10 9 -16 9 -21 1z"/>
 <path d="M3655 2030 c-10 -17 12 -37 25 -24 8 8 6 15 -4 23 -10 9 -16 9 -21 1z"/>
 <path d="M5795 2030 c-10 -17 12 -37 25 -24 8 8 6 15 -4 23 -10 9 -16 9 -21 1z"/>
 <path d="M5726 2021 c-3 -5 1 -14 8 -20 16 -13 32 2 21 19 -8 12 -22 13 -29 1z"/>
 <path d="M7196 2021 c-3 -5 1 -14 8 -20 16 -13 32 2 21 19 -8 12 -22 13 -29 1z"/>
 <path d="M1395 1970 c-10 -17 12 -37 25 -24 8 8 6 15 -4 23 -10 9 -16 9 -21 1z"/>
 <path d="M5855 1970 c-10 -17 12 -37 25 -24 8 8 6 15 -4 23 -10 9 -16 9 -21 1z"/>
 <path d="M1445 1910 c-10 -17 12 -37 25 -24 8 8 6 15 -4 23 -10 9 -16 9 -21 1z"/>
 <path d="M3705 1910 c-10 -17 12 -37 25 -24 8 8 6 15 -4 23 -10 9 -16 9 -21 1z"/>
 <path d="M5965 1910 c-10 -17 12 -37 25 -24 8 8 6 15 -4 23 -10 9 -16 9 -21 1z"/>
 <path d="M6071 1906 c-9 -10 -9 -16 -1 -21 17 -10 37 12 24 25 -8 8 -15 6 -23 -4z"/>
 <path d="M1565 1860 c-10 -17 12 -37 25 -24 8 8 6 15 -4 23 -10 9 -16 9 -21 1z"/>
 <path d="M1445 1850 c-11 -17 5 -32 21 -19 7 6 11 15 8 20 -7 12 -21 11 -29 -1z"/>
 <path d="M5956 1851 c-3 -5 1 -14 8 -20 16 -13 32 2 21 19 -8 12 -22 13 -29 1z"/>
 <path d="M7256 1851 c-3 -5 1 -14 8 -20 16 -13 32 2 21 19 -8 12 -22 13 -29 1z"/>
 <path d="M3825 1800 c-10 -17 12 -37 25 -24 8 8 6 15 -4 23 -10 9 -16 9 -21 1z"/>
 <path d="M1785 1790 c-11 -17 5 -32 21 -19 7 6 11 15 8 20 -7 12 -21 11 -29 -1z"/>
 <path d="M6066 1791 c-3 -5 1 -14 8 -20 16 -13 32 2 21 19 -8 12 -22 13 -29 1z"/>
 <path d="M7261 1736 c-9 -10 -9 -16 -1 -21 17 -10 37 12 24 25 -8 8 -15 6 -23 -4z"/>
 <path d="M7201 1686 c-9 -10 -9 -16 -1 -21 17 -10 37 12 24 25 -8 8 -15 6 -23 -4z"/>
 </g>
<g id="layer2" fill="#ddb190" stroke="none">
 <path d="M264 3247 c-7 -20 -2 -47 11 -50 14 -3 19 43 6 56 -7 7 -12 6 -17 -6z"/>
 <path d="M10025 3160 c-4 -6 -3 -16 3 -22 6 -6 12 -6 17 2 4 6 3 16 -3 22 -6 6 -12 6 -17 -2z"/>
 <path d="M3315 2700 c-4 -6 -3 -16 3 -22 6 -6 12 -6 17 2 4 6 3 16 -3 22 -6 6 -12 6 -17 -2z"/>
 <path d="M6652 2678 c-9 -9 -12 -81 -12 -283 0 -150 3 -274 6 -277 3 -3 17 -3 32 1 l27 7 3 112 c3 111 3 112 27 112 18 0 24 -6 27 -27 3 -24 8 -28 33 -28 29 0 30 2 33 52 3 45 6 52 25 55 20 3 22 9 22 58 0 49 -2 55 -22 58 -15 2 -23 11 -25 30 -2 21 -9 28 -30 30 -21 3 -27 9 -30 30 -2 21 -9 28 -30 30 -19 2 -28 10 -30 25 -3 25 -37 34 -56 15z"/>
 <path d="M3325 2640 c-8 -13 20 -24 41 -16 20 8 9 26 -16 26 -10 0 -22 -5 -25 -10z"/>
 <path d="M3655 2590 c-10 -17 12 -37 25 -24 8 8 6 15 -4 23 -10 9 -16 9 -21 1z"/>
 <path d="M3705 2530 c-10 -17 12 -37 25 -24 8 8 6 15 -4 23 -10 9 -16 9 -21 1z"/>
 <path d="M3765 2480 c-10 -17 12 -37 25 -24 8 8 6 15 -4 23 -10 9 -16 9 -21 1z"/>
 <path d="M2805 2420 c-10 -17 12 -37 25 -24 8 8 6 15 -4 23 -10 9 -16 9 -21 1z"/>
 <path d="M3265 2411 c-7 -13 17 -24 40 -19 9 1 16 8 16 13 0 14 -48 19 -56 6z"/>
 <path d="M3825 2370 c-10 -17 12 -37 25 -24 8 8 6 15 -4 23 -10 9 -16 9 -21 1z"/>
 <path d="M8436 2361 c-3 -5 1 -14 8 -20 16 -13 32 2 21 19 -8 12 -22 13 -29 1z"/>
 <path d="M8496 2301 c-3 -5 1 -14 8 -20 16 -13 32 2 21 19 -8 12 -22 13 -29 1z"/>
 <path d="M3655 1851 c-7 -12 12 -24 25 -16 11 7 4 25 -10 25 -5 0 -11 -4 -15 -9z"/>
 <path d="M3865 1621 c-7 -12 12 -24 25 -16 11 7 4 25 -10 25 -5 0 -11 -4 -15 -9z"/>
 <path d="M10025 1570 c-4 -6 -3 -16 3 -22 6 -6 12 -6 17 2 4 6 3 16 -3 22 -6 6 -12 6 -17 -2z"/>
 <path d="M264 1557 c-7 -20 -2 -47 11 -50 14 -3 19 43 6 56 -7 7 -12 6 -17 -6z"/>
 </g>
<g id="layer3" fill="#c3f4af" stroke="none">
 <path d="M10765 2811 c-7 -12 12 -24 25 -16 11 7 4 25 -10 25 -5 0 -11 -4 -15 -9z"/>
 <path d="M10705 2751 c-7 -12 12 -24 25 -16 11 7 4 25 -10 25 -5 0 -11 -4 -15 -9z"/>
 <path d="M10707 2514 c-12 -12 -8 -99 5 -112 7 -7 20 -12 29 -12 9 0 19 -9 22 -21 3 -11 15 -23 26 -26 12 -3 21 -13 21 -22 0 -22 19 -41 42 -41 11 0 18 -7 18 -18 0 -22 19 -42 40 -42 8 0 20 -10 25 -22 8 -18 19 -24 57 -26 39 -3 47 -6 50 -25 3 -21 8 -22 110 -25 l107 -3 3 -27 3 -27 120 0 120 0 0 60 0 60 -82 3 c-76 3 -82 4 -85 25 -3 21 -8 22 -110 25 l-107 3 -3 27 c-3 25 -6 27 -60 30 -53 3 -57 5 -60 30 -2 19 -10 28 -25 30 -14 2 -23 11 -25 25 -2 15 -11 23 -30 25 -21 3 -27 9 -30 30 -2 21 -9 28 -30 30 -19 2 -28 10 -30 25 -3 19 -10 22 -58 25 -31 2 -59 0 -63 -4z"/>
 <path d="M10475 2131 c-7 -12 12 -24 25 -16 11 7 4 25 -10 25 -5 0 -11 -4 -15 -9z"/>
 <path d="M10535 2071 c-7 -12 12 -24 25 -16 11 7 4 25 -10 25 -5 0 -11 -4 -15 -9z"/>
 <path d="M10595 1961 c-7 -12 12 -24 25 -16 11 7 4 25 -10 25 -5 0 -11 -4 -15 -9z"/>
 <path d="M10705 1901 c-7 -12 12 -24 25 -16 11 7 4 25 -10 25 -5 0 -11 -4 -15 -9z"/>
 <path d="M10765 1851 c-7 -12 12 -24 25 -16 11 7 4 25 -10 25 -5 0 -11 -4 -15 -9z"/>
 <path d="M10875 1731 c-7 -12 12 -24 25 -16 11 7 4 25 -10 25 -5 0 -11 -4 -15 -9z"/>
 <path d="M11665 1681 c-7 -12 12 -24 25 -16 11 7 4 25 -10 25 -5 0 -11 -4 -15 -9z"/>
 <path d="M11725 1621 c-7 -12 12 -24 25 -16 11 7 4 25 -10 25 -5 0 -11 -4 -15 -9z"/>
 </g>
<g id="layer4" fill="#efcaae" stroke="none">
 <path d="M8054 3807 c-7 -20 -2 -47 11 -50 14 -3 19 43 6 56 -7 7 -12 6 -17 -6z"/>
 <path d="M7827 3763 c-3 -5 -7 -35 -8 -68 -2 -47 0 -60 12 -60 10 0 15 16 17 59 3 54 -8 90 -21 69z"/>
 <path d="M8540 3660 c-29 -4 -35 -9 -33 -27 3 -21 -1 -22 -85 -25 -67 -2 -87 -6 -87 -17 0 -11 18 -14 85 -12 87 2 113 12 103 37 -4 10 2 14 20 14 24 0 55 25 40 32 -4 2 -24 2 -43 -2z"/>
 <path d="M7612 3647 c-5 -6 -12 -23 -14 -37 -5 -39 25 -32 33 8 7 35 -2 50 -19 29z"/>
 <path d="M7492 3597 c-5 -6 -12 -25 -14 -42 -5 -47 25 -39 33 8 6 40 -2 55 -19 34z"/>
 <path d="M8310 3551 c-45 -8 -50 -38 -5 -33 31 4 64 26 48 34 -4 2 -24 2 -43 -1z"/>
 <path d="M7380 3535 c-13 -16 -10 -70 5 -69 12 1 25 73 15 79 -4 3 -13 -2 -20 -10z"/>
 <path d="M8225 3440 c-43 -4 -60 -9 -60 -20 0 -18 104 -15 123 5 19 18 6 21 -63 15z"/>
 <path d="M8060 3380 c-111 -5 -115 -6 -113 -27 3 -22 0 -22 -115 -25 -91 -2 -117 -6 -117 -17 0 -11 23 -13 115 -12 115 2 144 10 133 37 -4 12 13 14 100 14 78 0 108 4 116 14 7 8 8 16 4 18 -4 1 -60 1 -123 -2z"/>
 <path d="M3528 3325 c-2 -3 -2 -22 1 -43 8 -47 38 -53 33 -7 -4 30 -24 60 -34 50z"/>
 <path d="M10092 3317 c-13 -16 -21 -66 -12 -72 11 -7 27 16 32 48 6 31 -4 43 -20 24z"/>
 <path d="M7520 3270 c-162 -4 -205 -8 -205 -18 0 -20 394 -17 413 2 8 8 10 15 5 17 -4 2 -100 2 -213 -1z"/>
 <path d="M3649 3266 c-9 -9 7 -131 16 -129 16 4 18 108 2 121 -8 7 -16 10 -18 8z"/>
 <path d="M10255 3261 c-7 -12 12 -24 25 -16 11 7 4 25 -10 25 -5 0 -11 -4 -15 -9z"/>
 <path d="M7295 3211 c-16 -4 -30 -11 -30 -16 0 -16 51 -17 64 -1 15 18 4 24 -34 17z"/>
 <path d="M10315 3201 c-7 -12 12 -24 25 -16 11 7 4 25 -10 25 -5 0 -11 -4 -15 -9z"/>
 <path d="M10365 2640 c-3 -5 0 -13 9 -16 21 -8 71 -1 71 11 0 14 -72 19 -80 5z"/>
 <path d="M2757 2634 c-4 -4 -7 -42 -7 -85 l0 -78 -52 -3 c-47 -3 -53 -6 -56 -26 -4 -28 14 -52 38 -52 10 0 20 -9 23 -21 3 -11 15 -23 26 -26 16 -4 21 -15 23 -57 l3 -51 65 0 65 0 0 85 0 85 -30 5 -30 5 0 110 0 110 -30 3 c-17 2 -34 0 -38 -4z"/>
 <path d="M8397 2464 c-4 -4 -7 -29 -7 -54 0 -49 18 -77 43 -67 8 3 13 -4 12 -22 0 -21 5 -27 30 -31 24 -4 30 -10 30 -30 0 -24 3 -25 60 -25 l60 0 0 30 c0 23 -5 31 -22 33 -15 2 -23 11 -25 30 -2 21 -9 28 -30 30 -19 2 -28 10 -30 25 -2 15 -11 23 -30 25 -21 3 -27 9 -30 30 -2 20 -9 28 -28 30 -14 2 -29 0 -33 -4z"/>
 <path d="M3657 1843 c-5 -8 -10 -51 -8 -67 2 -19 31 18 31 40 0 23 -15 41 -23 27z"/>
 <path d="M3602 1788 c-16 -16 -15 -101 0 -116 7 -7 21 -12 31 -12 15 0 18 -5 15 -25 -3 -14 -2 -28 2 -30 14 -9 31 24 28 52 -2 22 -9 29 -31 31 -27 3 -28 5 -26 52 3 55 -1 66 -19 48z"/>
 <path d="M3602 1618 c-11 -14 -20 -114 -10 -123 12 -12 26 23 29 72 3 57 -2 71 -19 51z"/>
 <path d="M6689 1513 c-5 -38 14 -88 31 -78 11 7 -4 78 -18 83 -6 2 -12 0 -13 -5z"/>
 <path d="M6985 1510 c-4 -6 -3 -16 3 -22 6 -6 12 -6 17 2 4 6 3 16 -3 22 -6 6 -12 6 -17 -2z"/>
 <path d="M10079 1516 c-2 -2 -2 -33 1 -68 4 -46 9 -63 20 -63 11 0 13 12 11 55 -2 48 -19 89 -32 76z"/>
 <path d="M3597 1454 c-19 -20 27 -24 251 -24 247 0 247 0 257 -22 9 -21 18 -23 88 -26 66 -2 77 -5 77 -20 0 -29 21 -42 67 -42 35 0 43 -3 43 -18 0 -29 21 -42 65 -42 32 0 42 -4 50 -22 9 -21 18 -23 88 -26 66 -2 77 -5 77 -20 0 -23 19 -42 42 -42 11 0 18 -7 18 -18 0 -33 22 -42 96 -42 64 0 72 -2 77 -21 3 -11 15 -23 26 -26 12 -3 21 -13 21 -22 0 -22 19 -41 42 -41 11 0 18 -7 18 -18 0 -29 21 -42 65 -42 32 0 42 -4 50 -22 6 -13 20 -24 33 -26 13 -2 22 -10 22 -21 0 -22 19 -41 41 -41 9 0 19 -9 22 -21 3 -11 15 -23 26 -26 18 -4 21 -13 21 -52 0 -59 12 -71 71 -71 l48 0 3 -48 c2 -37 8 -49 25 -57 21 -9 23 -17 25 -112 4 -146 23 -134 23 15 0 113 -1 117 -22 120 -19 3 -22 10 -25 55 l-3 52 -57 3 -57 3 -3 57 c-3 50 -6 57 -25 60 -14 2 -23 11 -25 25 -2 15 -11 23 -30 25 -21 3 -27 9 -30 30 -2 21 -9 28 -30 30 -19 2 -28 10 -30 25 -3 19 -10 22 -55 25 -48 3 -52 5 -55 30 -2 21 -9 28 -30 30 -21 3 -27 9 -30 30 -2 19 -10 28 -25 30 -14 2 -23 11 -25 25 -3 20 -9 22 -85 25 -81 3 -82 3 -85 30 -2 21 -9 28 -30 30 -21 3 -27 9 -30 30 -3 27 -4 27 -85 30 -76 3 -82 4 -85 25 -3 19 -10 22 -55 25 -48 3 -52 5 -55 30 -3 25 -7 27 -55 30 -48 3 -52 5 -55 30 -3 27 -4 27 -85 30 -76 3 -82 4 -85 25 -3 22 -3 22 -264 25 -143 1 -263 -1 -267 -4z"/>
 <path d="M6749 1453 c-5 -34 15 -78 31 -68 11 7 -4 68 -18 73 -6 2 -13 0 -13 -5z"/>
 <path d="M6925 1450 c-11 -17 5 -32 21 -19 7 6 11 15 8 20 -7 12 -21 11 -29 -1z"/>
 <path d="M10315 1451 c-7 -12 12 -24 25 -16 11 7 4 25 -10 25 -5 0 -11 -4 -15 -9z"/>
 <path d="M3705 1110 c-11 -17 5 -32 21 -19 7 6 11 15 8 20 -7 12 -21 11 -29 -1z"/>
 <path d="M3756 1111 c-3 -5 1 -14 8 -20 16 -13 32 2 21 19 -8 12 -22 13 -29 1z"/>
 <path d="M3816 1001 c-3 -5 1 -14 8 -20 16 -13 32 2 21 19 -8 12 -22 13 -29 1z"/>
 <path d="M3866 941 c-3 -5 1 -14 8 -20 16 -13 32 2 21 19 -8 12 -22 13 -29 1z"/>
 <path d="M3926 891 c-3 -5 1 -14 8 -20 16 -13 32 2 21 19 -8 12 -22 13 -29 1z"/>
 <path d="M3976 831 c-3 -5 1 -14 8 -20 16 -13 32 2 21 19 -8 12 -22 13 -29 1z"/>
 <path d="M4036 781 c-3 -5 1 -14 8 -20 16 -13 32 2 21 19 -8 12 -22 13 -29 1z"/>
 <path d="M4096 721 c-3 -5 1 -14 8 -20 16 -13 32 2 21 19 -8 12 -22 13 -29 1z"/>
 <path d="M4316 661 c-3 -5 1 -14 8 -20 16 -13 32 2 21 19 -8 12 -22 13 -29 1z"/>
 <path d="M4436 611 c-3 -5 1 -14 8 -20 16 -13 32 2 21 19 -8 12 -22 13 -29 1z"/>
 <path d="M4546 551 c-3 -5 1 -14 8 -20 16 -13 32 2 21 19 -8 12 -22 13 -29 1z"/>
 <path d="M4606 491 c-3 -5 1 -14 8 -20 16 -13 32 2 21 19 -8 12 -22 13 -29 1z"/>
 <path d="M4766 441 c-3 -5 1 -14 8 -20 16 -13 32 2 21 19 -8 12 -22 13 -29 1z"/>
 <path d="M4936 381 c-3 -5 1 -14 8 -20 16 -13 32 2 21 19 -8 12 -22 13 -29 1z"/>
 </g>
<g id="layer5" fill="#f0c57e" stroke="none">
 <path d="M7215 3201 c-7 -13 17 -24 40 -19 9 1 16 8 16 13 0 14 -48 19 -56 6z"/>
 <path d="M6985 3189 c-10 -26 -1 -674 10 -674 14 0 19 665 5 679 -6 6 -11 4 -15 -5z"/>
 <path d="M3602 3148 c-19 -19 -17 -331 3 -348 8 -7 15 -9 15 -4 1 5 0 82 0 171 -1 161 -1 162 22 165 13 2 22 8 21 13 -3 15 -46 18 -61 3z"/>
 <path d="M6647 3154 c-4 -4 -7 -70 -7 -146 0 -126 -2 -138 -18 -138 -23 0 -42 -19 -42 -41 0 -26 21 -34 27 -11 3 13 15 22 32 24 l26 3 3 149 c2 137 -3 178 -21 160z"/>
 <path d="M10025 3139 c-10 -26 -1 -464 10 -462 14 4 19 453 6 466 -7 7 -12 5 -16 -4z"/>
 <path d="M3085 2810 c-11 -17 5 -32 21 -19 7 6 11 15 8 20 -7 12 -21 11 -29 -1z"/>
 <path d="M8606 2751 c-3 -5 1 -14 8 -20 16 -13 32 2 21 19 -8 12 -22 13 -29 1z"/>
 <path d="M1505 2700 c-4 -6 -3 -16 3 -22 6 -6 12 -6 17 2 4 6 3 16 -3 22 -6 6 -12 6 -17 -2z"/>
 <path d="M2015 2700 c-4 -6 -3 -16 3 -22 6 -6 12 -6 17 2 4 6 3 16 -3 22 -6 6 -12 6 -17 -2z"/>
 <path d="M3314 2676 c-8 -21 3 -49 16 -41 5 3 10 15 10 25 0 25 -18 36 -26 16z"/>
 <path d="M1565 2650 c-4 -6 -3 -16 3 -22 6 -6 12 -6 17 2 4 6 3 16 -3 22 -6 6 -12 6 -17 -2z"/>
 <path d="M2075 2650 c-4 -6 -3 -16 3 -22 6 -6 12 -6 17 2 4 6 3 16 -3 22 -6 6 -12 6 -17 -2z"/>
 <path d="M2295 2650 c-4 -6 -3 -16 3 -22 6 -6 12 -6 17 2 4 6 3 16 -3 22 -6 6 -12 6 -17 -2z"/>
 <path d="M2745 2650 c-4 -6 -3 -16 3 -22 6 -6 12 -6 17 2 4 6 3 16 -3 22 -6 6 -12 6 -17 -2z"/>
 <path d="M8611 2646 c-9 -10 -9 -16 -1 -21 17 -10 37 12 24 25 -8 8 -15 6 -23 -4z"/>
 <path d="M7766 2641 c-3 -5 1 -14 8 -20 16 -13 32 2 21 19 -8 12 -22 13 -29 1z"/>
 <path d="M3367 2634 c-4 -4 -7 -15 -7 -23 0 -9 -10 -21 -22 -26 -21 -9 -23 -17 -23 -92 0 -105 19 -116 23 -13 2 67 5 77 25 85 12 6 24 21 25 34 4 25 -10 46 -21 35z"/>
 <path d="M995 2590 c-10 -17 12 -37 25 -24 8 8 6 15 -4 23 -10 9 -16 9 -21 1z"/>
 <path d="M1785 2590 c-10 -17 12 -37 25 -24 8 8 6 15 -4 23 -10 9 -16 9 -21 1z"/>
 <path d="M2355 2590 c-10 -17 12 -37 25 -24 8 8 6 15 -4 23 -10 9 -16 9 -21 1z"/>
 <path d="M8836 2581 c-3 -5 1 -14 8 -20 16 -13 32 2 21 19 -8 12 -22 13 -29 1z"/>
 <path d="M2125 2530 c-10 -17 12 -37 25 -24 8 8 6 15 -4 23 -10 9 -16 9 -21 1z"/>
 <path d="M2465 2530 c-10 -17 12 -37 25 -24 8 8 6 15 -4 23 -10 9 -16 9 -21 1z"/>
 <path d="M7596 2521 c-3 -5 1 -14 8 -20 16 -13 32 2 21 19 -8 12 -22 13 -29 1z"/>
 <path d="M1055 2480 c-10 -17 12 -37 25 -24 8 8 6 15 -4 23 -10 9 -16 9 -21 1z"/>
 <path d="M1845 2480 c-10 -17 12 -37 25 -24 8 8 6 15 -4 23 -10 9 -16 9 -21 1z"/>
 <path d="M8606 2471 c-3 -5 1 -14 8 -20 16 -13 32 2 21 19 -8 12 -22 13 -29 1z"/>
 <path d="M8886 2471 c-3 -5 1 -14 8 -20 16 -13 32 2 21 19 -8 12 -22 13 -29 1z"/>
 <path d="M1905 2420 c-10 -17 12 -37 25 -24 8 8 6 15 -4 23 -10 9 -16 9 -21 1z"/>
 <path d="M7646 2411 c-3 -5 1 -14 8 -20 16 -13 32 2 21 19 -8 12 -22 13 -29 1z"/>
 <path d="M8046 2411 c-3 -5 1 -14 8 -20 16 -13 32 2 21 19 -8 12 -22 13 -29 1z"/>
 <path d="M8666 2411 c-3 -5 1 -14 8 -20 16 -13 32 2 21 19 -8 12 -22 13 -29 1z"/>
 <path d="M1115 2370 c-10 -17 12 -37 25 -24 8 8 6 15 -4 23 -10 9 -16 9 -21 1z"/>
 <path d="M1955 2370 c-10 -17 12 -37 25 -24 8 8 6 15 -4 23 -10 9 -16 9 -21 1z"/>
 <path d="M2185 2370 c-10 -17 12 -37 25 -24 8 8 6 15 -4 23 -10 9 -16 9 -21 1z"/>
 <path d="M2525 2370 c-10 -17 12 -37 25 -24 8 8 6 15 -4 23 -10 9 -16 9 -21 1z"/>
 <path d="M4618 2365 c-2 -2 -1 -34 2 -72 4 -61 7 -68 27 -71 14 -2 23 -11 25 -25 2 -16 11 -23 31 -25 15 -2 27 -9 27 -17 0 -8 -12 -15 -27 -17 -22 -2 -29 -9 -31 -30 -2 -19 -10 -28 -25 -30 -21 -3 -22 -9 -25 -110 l-3 -107 -27 -3 c-24 -3 -27 -7 -27 -38 0 -31 3 -35 27 -38 21 -3 27 -9 30 -30 2 -19 10 -28 25 -30 19 -3 22 -10 25 -55 l3 -52 90 0 c86 0 90 1 93 22 l3 23 357 2 357 3 10 23 c5 12 17 22 25 22 22 0 40 20 40 45 0 44 -7 45 -355 45 -344 0 -355 -1 -355 -42 0 -16 -9 -18 -70 -18 l-71 0 1 240 c1 132 -2 244 -5 250 -3 5 -15 10 -25 10 -13 0 -20 8 -22 28 -2 21 -9 28 -30 30 -21 2 -28 9 -30 30 -2 21 -10 28 -35 33 -18 3 -34 5 -35 4z"/>
 <path d="M8156 2361 c-3 -5 1 -14 8 -20 16 -13 32 2 21 19 -8 12 -22 13 -29 1z"/>
 <path d="M8726 2361 c-3 -5 1 -14 8 -20 16 -13 32 2 21 19 -8 12 -22 13 -29 1z"/>
 <path d="M8946 2361 c-3 -5 1 -14 8 -20 16 -13 32 2 21 19 -8 12 -22 13 -29 1z"/>
 <path d="M2015 2310 c-10 -17 12 -37 25 -24 8 8 6 15 -4 23 -10 9 -16 9 -21 1z"/>
 <path d="M2575 2310 c-10 -17 12 -37 25 -24 8 8 6 15 -4 23 -10 9 -16 9 -21 1z"/>
 <path d="M3825 2300 c-11 -17 5 -32 21 -19 7 6 11 15 8 20 -7 12 -21 11 -29 -1z"/>
 <path d="M9006 2301 c-3 -5 1 -14 8 -20 16 -13 32 2 21 19 -8 12 -22 13 -29 1z"/>
 <path d="M9286 2301 c-3 -5 1 -14 8 -20 16 -13 32 2 21 19 -8 12 -22 13 -29 1z"/>
 <path d="M2075 2250 c-10 -17 12 -37 25 -24 8 8 6 15 -4 23 -10 9 -16 9 -21 1z"/>
 <path d="M884 2237 c-11 -29 0 -122 15 -122 17 0 19 127 2 133 -6 2 -13 -3 -17 -11z"/>
 <path d="M6992 2238 c-7 -7 -12 -31 -12 -55 0 -35 -3 -43 -18 -43 -24 0 -42 -19 -42 -45 0 -26 18 -45 42 -45 16 0 18 -11 18 -125 0 -114 -2 -125 -18 -125 -24 0 -42 -19 -42 -45 0 -26 18 -45 42 -45 15 0 18 -12 20 -102 4 -136 22 -135 26 1 3 108 -4 131 -39 131 -11 0 -19 7 -19 15 0 8 8 15 18 15 37 0 42 20 42 155 0 135 -5 155 -42 155 -10 0 -18 7 -18 15 0 8 8 15 18 15 29 0 42 21 42 66 0 34 4 43 21 47 12 3 18 10 14 16 -8 15 -38 14 -53 -1z"/>
 <path d="M1165 2200 c-10 -17 12 -37 25 -24 8 8 6 15 -4 23 -10 9 -16 9 -21 1z"/>
 <path d="M1445 2200 c-10 -17 12 -37 25 -24 8 8 6 15 -4 23 -10 9 -16 9 -21 1z"/>
 <path d="M2125 2200 c-10 -17 12 -37 25 -24 8 8 6 15 -4 23 -10 9 -16 9 -21 1z"/>
 <path d="M2635 2200 c-10 -17 12 -37 25 -24 8 8 6 15 -4 23 -10 9 -16 9 -21 1z"/>
 <path d="M3035 2200 c-10 -17 12 -37 25 -24 8 8 6 15 -4 23 -10 9 -16 9 -21 1z"/>
 <path d="M9291 2196 c-9 -10 -9 -16 -1 -21 17 -10 37 12 24 25 -8 8 -15 6 -23 -4z"/>
 <path d="M1505 2140 c-10 -17 12 -37 25 -24 8 8 6 15 -4 23 -10 9 -16 9 -21 1z"/>
 <path d="M2245 2140 c-10 -17 12 -37 25 -24 8 8 6 15 -4 23 -10 9 -16 9 -21 1z"/>
 <path d="M2695 2140 c-10 -17 12 -37 25 -24 8 8 6 15 -4 23 -10 9 -16 9 -21 1z"/>
 <path d="M3085 2140 c-10 -17 12 -37 25 -24 8 8 6 15 -4 23 -10 9 -16 9 -21 1z"/>
 <path d="M8731 2136 c-9 -10 -9 -16 -1 -21 17 -10 37 12 24 25 -8 8 -15 6 -23 -4z"/>
 <path d="M9231 2136 c-9 -10 -9 -16 -1 -21 17 -10 37 12 24 25 -8 8 -15 6 -23 -4z"/>
 <path d="M6650 2125 c-13 -15 -8 -19 22 -16 16 2 18 -20 20 -298 2 -190 7 -302 13 -304 15 -3 19 601 4 619 -15 18 -43 18 -59 -1z"/>
 <path d="M8156 2131 c-3 -5 1 -14 8 -20 16 -13 32 2 21 19 -8 12 -22 13 -29 1z"/>
 <path d="M1615 2080 c-10 -17 12 -37 25 -24 8 8 6 15 -4 23 -10 9 -16 9 -21 1z"/>
 <path d="M2865 2080 c-10 -17 12 -37 25 -24 8 8 6 15 -4 23 -10 9 -16 9 -21 1z"/>
 <path d="M3195 2080 c-10 -17 12 -37 25 -24 8 8 6 15 -4 23 -10 9 -16 9 -21 1z"/>
 <path d="M3309 2076 c-2 -2 -2 -118 1 -258 7 -334 24 -337 28 -4 2 195 0 245 -11 255 -8 6 -16 9 -18 7z"/>
 <path d="M945 2030 c-10 -17 12 -37 25 -24 8 8 6 15 -4 23 -10 9 -16 9 -21 1z"/>
 <path d="M1225 2030 c-10 -17 12 -37 25 -24 8 8 6 15 -4 23 -10 9 -16 9 -21 1z"/>
 <path d="M1675 2030 c-10 -17 12 -37 25 -24 8 8 6 15 -4 23 -10 9 -16 9 -21 1z"/>
 <path d="M995 1970 c-10 -17 12 -37 25 -24 8 8 6 15 -4 23 -10 9 -16 9 -21 1z"/>
 <path d="M1055 1910 c-10 -17 12 -37 25 -24 8 8 6 15 -4 23 -10 9 -16 9 -21 1z"/>
 <path d="M1735 1910 c-10 -17 12 -37 25 -24 8 8 6 15 -4 23 -10 9 -16 9 -21 1z"/>
 <path d="M1165 1860 c-10 -17 12 -37 25 -24 8 8 6 15 -4 23 -10 9 -16 9 -21 1z"/>
 <path d="M8221 1856 c-9 -10 -9 -16 -1 -21 17 -10 37 12 24 25 -8 8 -15 6 -23 -4z"/>
 <path d="M1285 1800 c-10 -17 12 -37 25 -24 8 8 6 15 -4 23 -10 9 -16 9 -21 1z"/>
 <path d="M1505 1800 c-10 -17 12 -37 25 -24 8 8 6 15 -4 23 -10 9 -16 9 -21 1z"/>
 <path d="M1615 1740 c-10 -17 12 -37 25 -24 8 8 6 15 -4 23 -10 9 -16 9 -21 1z"/>
 <path d="M3596 1443 c-11 -11 -6 -99 6 -111 7 -7 20 -12 29 -12 14 0 19 -10 21 -47 2 -38 8 -50 25 -58 18 -8 23 -19 25 -60 4 -71 23 -57 23 18 0 56 -2 62 -22 65 -19 3 -22 10 -25 55 -3 48 -5 52 -30 55 -26 3 -28 7 -28 47 0 42 -10 62 -24 48z"/>
 </g>
<g id="layer6" fill="#5b431f" stroke="none">
 <path d="M6027 2854 c-3 -4 -7 -116 -7 -249 0 -202 3 -245 15 -255 8 -7 20 -10 27 -7 10 3 13 -43 13 -217 l0 -221 -46 0 c-40 0 -45 2 -41 21 6 30 -21 47 -71 43 -38 -4 -43 -2 -39 14 6 24 -18 49 -44 44 -16 -3 -20 0 -17 13 6 21 -21 44 -44 38 -16 -4 -18 3 -18 51 0 51 -2 56 -25 61 -17 3 -25 12 -25 25 0 16 -7 20 -35 20 l-35 0 0 -85 c0 -85 0 -85 27 -88 19 -2 28 -10 30 -25 2 -14 11 -23 25 -25 15 -2 23 -11 25 -30 2 -21 9 -28 30 -30 21 -3 27 -9 30 -30 2 -21 9 -28 30 -30 19 -2 28 -10 30 -25 2 -18 11 -23 53 -27 45 -5 50 -7 50 -30 0 -23 4 -25 55 -30 51 -5 55 -7 55 -30 0 -22 4 -25 35 -25 l35 0 3 57 c3 53 5 57 30 60 l27 3 0 225 0 225 -27 3 -27 3 -3 137 -3 137 -27 3 c-21 3 -28 9 -28 25 0 20 5 22 53 22 l52 0 -3 -48 c-4 -52 11 -81 39 -74 12 3 15 0 12 -12 -6 -22 21 -45 44 -39 16 4 18 -1 14 -39 -3 -48 13 -77 39 -70 13 3 16 -1 13 -17 -5 -26 20 -50 44 -44 16 4 18 -1 14 -39 -4 -50 13 -77 45 -70 17 3 20 0 16 -15 -6 -23 17 -51 37 -45 13 3 16 -6 16 -47 l0 -51 35 0 c28 0 36 4 38 22 2 15 11 23 30 25 l27 3 5 305 c4 272 7 305 21 306 11 1 15 -5 12 -16 -6 -21 21 -44 45 -38 15 4 18 1 15 -16 -5 -27 20 -50 46 -43 14 3 17 0 14 -14 -7 -24 16 -52 36 -46 13 3 15 -4 12 -40 -4 -50 13 -77 45 -70 16 3 20 0 17 -13 -6 -21 22 -44 46 -37 14 3 17 0 14 -14 -7 -24 16 -52 36 -46 13 3 15 -4 12 -40 -4 -50 13 -77 44 -71 16 4 20 -1 20 -21 0 -21 6 -27 30 -31 29 -5 30 -7 30 -55 0 -45 2 -50 25 -55 24 -5 25 -8 25 -85 l0 -80 30 -5 c29 -5 30 -7 30 -56 0 -44 -3 -50 -18 -46 -22 6 -50 -17 -44 -37 3 -14 -7 -16 -70 -13 -83 4 -106 -7 -101 -47 l3 -26 120 0 120 0 3 27 c2 19 10 28 25 30 21 3 22 6 22 148 0 142 0 145 -22 148 -19 3 -22 10 -25 55 -3 48 -5 52 -30 55 -25 3 -27 7 -30 55 -3 45 -6 52 -25 55 -14 2 -23 11 -25 25 -2 15 -11 23 -30 25 -25 3 -27 7 -30 60 -3 54 -5 57 -30 60 -19 2 -28 10 -30 25 -2 14 -11 23 -25 25 -19 3 -22 10 -25 55 -3 48 -5 52 -30 55 -21 3 -27 9 -30 30 -2 21 -9 28 -30 30 -21 3 -27 9 -30 30 -2 19 -10 28 -25 30 -14 2 -23 11 -25 25 -2 15 -11 23 -30 25 -21 3 -27 9 -30 30 -2 21 -9 28 -30 30 -21 3 -27 9 -30 30 -3 26 -5 27 -63 27 l-60 0 0 -308 0 -307 -22 0 c-15 0 -23 7 -25 23 -2 14 -11 23 -25 25 -19 3 -22 10 -25 60 -3 54 -5 57 -30 60 -19 2 -28 10 -30 25 -2 15 -11 23 -30 25 -25 3 -27 7 -30 55 -3 45 -6 52 -25 55 -15 2 -23 11 -25 30 -2 21 -9 28 -30 30 -25 3 -27 7 -30 55 -3 45 -6 52 -25 55 -15 2 -23 11 -25 30 -2 21 -9 28 -30 30 -21 3 -27 9 -30 30 -2 21 -9 28 -30 30 -19 2 -28 10 -30 25 -2 15 -11 23 -28 25 -14 2 -29 0 -33 -4z"/>
 </g>
<g id="layer7" fill="#60c134" stroke="none">
 <path d="M10317 2914 c-12 -13 -8 -219 5 -232 7 -7 31 -12 54 -12 34 0 43 -4 47 -21 3 -11 15 -23 26 -26 21 -5 21 -11 21 -250 l0 -245 30 -11 c17 -6 30 -20 32 -32 2 -13 12 -21 30 -23 25 -3 27 -7 30 -55 l3 -52 52 -3 c48 -3 52 -5 55 -30 2 -21 9 -28 30 -30 19 -2 28 -10 30 -25 3 -20 9 -22 86 -25 74 -3 82 -5 82 -22 0 -13 -7 -20 -19 -20 -25 0 -43 -24 -39 -52 l3 -23 392 -3 392 -2 3 -23 c2 -15 11 -23 30 -25 21 -3 27 -9 30 -30 l3 -27 113 -3 112 -3 0 346 c0 335 -1 345 -19 345 -17 0 -20 8 -23 53 -3 48 -5 52 -30 55 -21 3 -27 9 -30 30 -2 21 -9 28 -30 30 -19 2 -28 10 -30 25 -2 14 -11 23 -25 25 -15 2 -23 11 -25 30 -2 21 -9 28 -30 30 -21 3 -27 9 -30 30 -3 25 -7 27 -55 30 -45 3 -52 6 -55 25 -2 15 -11 23 -30 25 -21 3 -27 9 -30 30 -3 27 -4 27 -85 30 -81 3 -82 3 -85 30 l-3 27 -285 0 -285 0 -3 -27 c-3 -21 -9 -27 -30 -30 -21 -2 -28 -9 -30 -30 -3 -26 -7 -28 -47 -28 -40 0 -44 2 -47 28 -2 21 -9 28 -30 30 -25 3 -27 7 -30 55 -3 48 -5 52 -30 55 -21 3 -27 9 -30 30 -3 27 -4 27 -83 30 -45 1 -84 0 -88 -4z m498 -436 c6 -13 20 -24 33 -26 13 -2 22 -10 22 -21 0 -22 19 -41 41 -41 9 0 19 -9 22 -21 3 -11 15 -23 26 -26 12 -3 21 -13 21 -22 0 -29 22 -41 72 -41 40 0 48 -3 48 -18 0 -35 21 -42 120 -42 89 0 96 -1 105 -22 9 -21 18 -23 88 -26 l77 -3 0 -44 0 -45 -104 0 -105 0 -3 28 -3 27 -107 3 c-102 3 -107 4 -110 25 -3 19 -10 22 -55 25 -45 3 -52 6 -55 25 -2 15 -11 23 -30 25 -21 3 -27 9 -30 30 -2 21 -9 28 -30 30 -21 3 -27 9 -30 30 -2 19 -10 28 -25 30 -14 2 -23 11 -25 25 -2 16 -11 23 -30 25 -26 3 -28 7 -28 48 l0 44 43 0 c34 0 44 -4 52 -22z"/>
 </g>
<g id="layer8" fill="#635326" stroke="none">
 <path d="M8677 2914 c-4 -4 -7 -56 -7 -114 0 -113 9 -138 47 -128 16 4 18 -3 15 -69 -4 -78 8 -108 37 -100 14 3 16 -6 13 -65 -4 -76 8 -102 42 -96 19 4 21 0 18 -44 -4 -52 11 -82 37 -75 13 3 16 -6 16 -47 l0 -51 175 0 175 0 3 27 c3 21 9 27 30 30 26 3 27 6 27 58 l0 55 -60 0 c-59 0 -60 -1 -60 -27 l1 -28 -77 0 c-77 0 -78 0 -81 28 -2 21 -9 28 -30 30 -21 3 -27 9 -30 30 -2 21 -9 28 -30 30 -25 3 -27 7 -30 55 -3 45 -6 52 -25 55 -19 3 -22 10 -25 55 -3 48 -5 52 -30 55 l-27 3 -3 112 c-3 107 -4 112 -25 115 -19 3 -22 10 -25 55 -3 50 -4 52 -33 55 -17 2 -34 0 -38 -4z"/>
 <path d="M724 2846 c-11 -29 1 -51 28 -54 21 -3 27 -9 30 -30 3 -25 7 -27 55 -30 48 -3 52 -5 55 -30 2 -21 9 -28 30 -30 19 -2 28 -10 30 -25 2 -14 11 -23 26 -25 13 -2 22 -10 22 -21 0 -22 19 -41 42 -41 15 0 18 -8 18 -43 0 -46 13 -67 41 -67 14 0 19 -10 21 -47 2 -39 7 -50 26 -58 20 -9 22 -17 22 -80 0 -73 10 -95 42 -95 15 0 18 -11 20 -77 3 -77 3 -78 31 -81 18 -2 27 -9 27 -22 0 -15 -9 -19 -55 -22 -51 -3 -55 -1 -55 18 0 25 -24 49 -40 39 -5 -3 -10 2 -10 13 0 25 -25 46 -45 38 -11 -4 -15 1 -15 18 0 28 -24 51 -44 43 -10 -4 -16 2 -18 21 -2 19 -10 28 -25 30 -14 2 -23 11 -25 25 -2 17 -10 22 -33 22 -29 0 -30 -2 -33 -48 -3 -52 9 -77 39 -77 14 0 19 -9 21 -47 3 -41 6 -48 25 -51 15 -2 23 -11 25 -30 2 -21 9 -28 30 -30 21 -3 27 -9 30 -30 3 -25 7 -27 55 -30 45 -3 52 -6 55 -25 3 -19 10 -22 60 -25 53 -3 57 -5 60 -30 3 -27 3 -27 88 -27 l85 0 0 28 c-1 21 4 27 21 27 17 0 23 -7 26 -27 3 -26 7 -28 55 -31 48 -3 52 -5 55 -30 l3 -27 90 0 c89 0 90 0 90 25 0 20 6 26 30 30 l30 5 3 109 c3 117 -5 141 -44 133 -16 -3 -21 0 -17 10 7 19 -17 45 -38 40 -12 -3 -15 0 -12 14 7 26 -16 51 -42 47 -16 -4 -20 1 -20 21 0 21 -6 27 -30 31 -28 5 -30 8 -30 51 0 40 2 45 21 41 24 -4 48 21 42 45 -4 16 1 18 39 14 25 -2 50 2 59 10 23 19 13 53 -16 59 -25 5 -25 6 -25 115 l0 110 -30 5 c-22 4 -30 11 -30 25 0 14 -8 21 -30 25 -24 4 -30 10 -30 30 0 18 -6 26 -25 30 -19 4 -25 11 -25 30 0 20 -6 26 -30 30 -22 4 -30 11 -30 25 0 19 -7 20 -175 20 -173 0 -175 0 -178 -22 -3 -19 -10 -22 -55 -25 -48 -3 -52 -5 -55 -30 -3 -26 -6 -28 -52 -28 -46 0 -49 2 -52 28 -3 25 -6 27 -60 30 -50 3 -57 6 -60 25 -3 19 -10 22 -56 25 -39 2 -54 -1 -58 -12z m788 -144 c2 -21 9 -28 30 -30 19 -2 28 -10 30 -25 2 -14 11 -23 26 -25 22 -3 22 -6 22 -132 l0 -129 -137 -3 -138 -3 0 -65 0 -65 50 -3 c41 -2 52 -7 60 -25 6 -12 20 -23 32 -25 14 -2 23 -11 25 -25 3 -19 10 -22 55 -25 48 -3 52 -5 55 -30 2 -21 9 -28 30 -30 19 -2 28 -10 30 -25 2 -15 11 -23 30 -25 25 -3 27 -7 30 -60 3 -50 6 -57 26 -60 12 -2 22 -10 22 -17 0 -11 -24 -14 -103 -17 -90 -3 -103 -1 -100 13 7 26 -23 41 -75 37 -43 -3 -48 -1 -44 15 6 23 -17 50 -39 44 -12 -3 -15 0 -12 14 7 26 -16 52 -41 47 -19 -4 -21 1 -21 46 0 46 -2 51 -25 56 -24 5 -25 8 -25 85 l0 80 -32 3 -32 3 -3 82 c-3 81 -3 82 -30 85 -19 2 -28 10 -30 25 -2 14 -11 23 -25 25 -19 3 -22 10 -25 60 -3 54 -5 57 -30 60 -20 2 -28 9 -28 22 0 13 5 17 15 14 21 -8 45 14 45 40 0 21 2 21 189 18 l190 -3 3 -27z"/>
 <path d="M1797 2854 c-4 -4 -7 -66 -7 -139 0 -135 5 -155 42 -155 15 0 18 -8 18 -43 0 -46 13 -67 41 -67 11 0 19 -9 21 -22 2 -13 12 -27 24 -32 11 -5 25 -19 30 -30 5 -12 19 -22 32 -24 13 -2 22 -10 22 -21 0 -22 19 -41 41 -41 11 0 19 -9 21 -22 2 -13 12 -27 24 -32 11 -5 25 -19 30 -30 7 -17 20 -22 62 -24 42 -2 52 -6 52 -21 0 -28 21 -41 66 -41 47 0 67 17 62 52 -2 17 -11 24 -33 28 -18 3 -30 11 -31 21 -1 11 5 14 20 12 34 -7 47 18 44 79 -3 50 -5 53 -33 58 -29 5 -30 7 -30 55 0 45 -2 50 -25 55 l-25 5 0 131 c0 118 2 130 17 126 13 -3 18 -17 20 -56 3 -47 5 -51 31 -54 18 -2 27 -9 27 -21 0 -28 21 -41 67 -41 35 0 43 -3 43 -18 0 -23 19 -42 42 -42 14 0 18 -11 20 -72 3 -65 6 -74 26 -83 12 -5 22 -17 22 -25 0 -21 20 -40 42 -40 15 0 18 -8 18 -43 0 -46 13 -67 42 -67 11 0 18 -7 18 -18 0 -33 22 -42 96 -42 68 0 73 -2 76 -22 3 -21 8 -23 63 -23 l60 0 0 81 c0 77 1 80 22 76 11 -2 24 -13 26 -24 3 -11 15 -22 26 -25 12 -3 21 -13 21 -22 0 -28 21 -41 66 -41 37 0 43 -3 46 -22 3 -21 8 -23 68 -23 63 0 65 1 65 26 0 19 4 25 15 22 27 -7 41 22 38 74 -3 42 -6 49 -28 53 -23 5 -25 9 -25 60 0 53 -1 55 -30 60 l-30 5 0 75 0 75 -30 5 -30 5 0 80 c0 77 -1 80 -25 85 -16 3 -25 12 -26 25 0 19 5 20 77 17 76 -3 78 -4 81 -30 3 -25 7 -27 55 -30 l53 -3 2 -162 3 -162 27 -3 c25 -3 27 -7 30 -60 3 -50 6 -57 25 -60 20 -3 22 -10 25 -80 3 -75 4 -77 30 -80 25 -3 27 -7 30 -55 3 -48 5 -52 30 -55 25 -3 27 -7 30 -55 3 -45 6 -52 25 -55 19 -3 22 -10 25 -60 3 -54 5 -57 30 -60 19 -2 28 -10 30 -25 2 -15 11 -23 30 -25 21 -3 27 -9 30 -30 2 -23 8 -27 33 -27 l30 0 3 78 c3 82 -8 112 -37 104 -13 -3 -15 4 -13 43 5 59 -11 73 -75 68 l-48 -3 3 48 c4 51 -11 81 -37 74 -13 -3 -16 5 -16 42 l0 46 98 -3 c106 -4 132 5 125 43 -4 18 -1 21 17 17 39 -7 46 16 43 159 l-3 134 -30 5 c-22 4 -30 11 -30 25 0 13 -8 22 -25 25 -23 5 -25 9 -25 60 0 52 -1 55 -27 58 -19 2 -28 10 -30 25 -2 15 -11 23 -30 25 -27 3 -27 4 -30 85 l-3 82 -30 0 c-23 0 -31 -5 -33 -22 -3 -21 -9 -23 -56 -23 -48 0 -53 2 -52 23 1 20 -3 22 -59 22 l-60 0 -3 -52 c-3 -47 -5 -53 -25 -53 -18 0 -23 6 -22 28 0 26 -3 27 -55 32 -47 4 -55 8 -55 25 0 18 -7 20 -60 20 -54 0 -60 -2 -63 -22 -2 -15 -11 -23 -30 -25 l-27 -3 0 -120 0 -120 27 -3 c27 -3 27 -4 30 -85 3 -76 5 -82 26 -85 21 -3 22 -8 22 -78 0 -64 -2 -74 -18 -74 -13 0 -18 8 -17 28 0 26 -3 27 -55 32 -51 5 -55 7 -55 30 0 20 -6 26 -30 30 -22 4 -30 11 -30 25 0 14 -8 21 -30 25 l-30 5 0 110 c0 109 0 110 -25 115 -23 5 -25 10 -25 55 0 48 -1 50 -30 55 -29 5 -30 7 -30 55 l0 50 -35 0 -35 0 0 -115 0 -115 28 -3 27 -3 0 -103 c0 -105 7 -126 42 -126 16 0 18 -9 18 -69 l0 -69 -52 -4 -53 -3 0 55 c0 50 -2 55 -25 60 -17 3 -25 12 -25 25 0 14 -8 21 -30 25 -29 5 -30 7 -30 55 0 48 -1 50 -30 55 -29 5 -30 7 -30 60 0 50 -2 55 -25 60 -23 5 -25 10 -25 55 0 48 -1 50 -30 55 -29 5 -30 7 -30 55 l0 50 -35 0 -35 0 -3 -52 c-2 -43 -7 -53 -20 -53 -13 0 -18 8 -17 28 0 22 -5 28 -30 32 -22 4 -30 11 -30 25 0 19 -7 20 -90 20 l-90 0 -3 -52 c-2 -43 -7 -53 -20 -53 -13 0 -18 8 -17 28 0 22 -5 28 -30 32 -22 4 -30 11 -30 25 0 19 -8 20 -116 23 -63 1 -118 -1 -122 -4z m225 -152 c2 -21 9 -28 30 -30 19 -2 28 -10 30 -25 2 -14 11 -23 26 -25 19 -3 22 -9 22 -51 0 -50 12 -71 42 -71 16 0 18 -9 18 -68 0 -70 10 -92 42 -92 15 0 18 -9 18 -50 0 -45 -2 -50 -23 -50 -18 0 -23 5 -22 28 0 22 -5 28 -30 32 -24 4 -30 10 -30 30 0 18 -6 26 -25 30 -17 3 -25 12 -25 25 0 14 -8 21 -30 25 -24 4 -30 10 -30 30 0 20 -6 26 -30 30 -29 5 -30 7 -30 55 0 45 -2 50 -25 55 -23 5 -25 10 -25 55 0 48 -1 50 -30 55 -21 4 -30 11 -31 25 0 19 5 20 77 17 76 -3 78 -4 81 -30z m1640 -106 c2 -11 13 -25 26 -31 12 -5 22 -17 22 -25 0 -20 20 -40 40 -40 8 0 20 -10 25 -22 6 -13 20 -24 32 -26 19 -3 22 -11 25 -50 2 -38 8 -49 26 -57 12 -5 22 -17 22 -27 0 -10 -9 -18 -22 -20 -17 -2 -24 -11 -26 -30 -3 -28 -4 -28 -81 -28 l-77 0 1 28 c0 22 -5 28 -30 32 l-30 5 0 105 0 105 -30 5 c-22 4 -30 11 -31 26 0 16 4 20 18 16 25 -6 50 17 46 43 -4 18 -1 21 18 17 14 -2 24 -13 26 -26z"/>
 <path d="M4057 2854 c-4 -4 -7 -15 -7 -25 0 -12 -9 -19 -27 -21 -22 -2 -29 -9 -31 -30 -2 -19 -10 -28 -25 -30 -21 -3 -22 -7 -22 -123 0 -116 1 -120 22 -123 20 -3 22 -10 25 -80 3 -75 4 -77 30 -80 21 -3 27 -9 30 -30 2 -21 9 -28 30 -30 21 -3 27 -9 30 -30 2 -19 10 -28 25 -30 14 -2 23 -11 25 -25 3 -19 10 -22 60 -25 50 -3 57 -6 60 -25 2 -14 11 -23 25 -25 15 -2 23 -11 25 -30 3 -24 7 -27 38 -27 31 0 35 3 35 25 0 23 4 25 55 30 l55 5 0 51 c0 45 2 50 21 46 35 -6 45 19 42 105 -3 77 -3 78 -30 81 -27 3 -27 4 -30 85 -3 76 -5 82 -25 85 -19 3 -22 10 -25 55 -3 48 -5 52 -30 55 -21 3 -27 9 -30 30 -2 21 -9 28 -30 30 -21 3 -27 9 -30 30 -2 19 -10 28 -25 30 -14 2 -23 11 -25 25 -3 21 -8 22 -119 25 -63 1 -118 -1 -122 -4z m165 -92 c2 -21 9 -28 30 -30 21 -3 27 -9 30 -30 2 -19 10 -28 25 -30 19 -3 22 -10 25 -55 3 -48 5 -52 30 -55 l27 -3 3 -107 3 -107 28 -3 c25 -3 27 -6 27 -52 0 -46 -2 -49 -27 -52 -20 -2 -29 -9 -31 -25 -2 -15 -10 -23 -22 -23 -12 0 -20 8 -22 23 -3 19 -10 22 -55 25 -48 3 -52 5 -55 30 -2 21 -9 28 -30 30 -21 3 -27 9 -30 30 -2 19 -10 28 -25 30 -19 3 -22 10 -25 55 -3 48 -5 52 -30 55 l-27 3 -3 133 c-3 123 -2 133 15 128 24 -6 49 18 45 42 -4 19 0 21 43 18 43 -4 48 -6 51 -30z"/>
 <path d="M4627 2854 c-4 -4 -7 -15 -7 -25 0 -12 -9 -19 -27 -21 l-28 -3 0 -175 0 -175 27 -3 c25 -3 27 -7 30 -55 3 -45 6 -52 25 -55 15 -2 23 -11 25 -30 2 -21 9 -28 30 -30 21 -3 27 -9 30 -30 2 -18 10 -28 23 -30 11 -2 25 -13 30 -25 6 -12 20 -23 32 -25 15 -2 23 -11 25 -30 2 -21 9 -28 30 -30 21 -3 27 -9 30 -30 3 -25 7 -27 51 -30 55 -4 81 11 75 43 -4 18 -1 21 17 17 26 -4 49 21 42 47 -3 14 0 17 12 14 36 -9 42 18 39 183 -3 155 -4 159 -25 162 -19 3 -22 10 -25 60 -3 54 -5 57 -30 60 -25 3 -27 7 -30 55 -3 48 -5 52 -30 55 -21 3 -27 9 -30 30 -2 19 -10 28 -25 30 -14 2 -23 11 -25 25 -3 21 -8 22 -144 25 -77 1 -143 -1 -147 -4z m155 -93 c3 -24 7 -26 60 -29 l57 -3 3 -52 c3 -45 6 -52 25 -55 15 -2 23 -11 25 -30 2 -21 9 -28 30 -30 l27 -3 3 -137 3 -137 28 -3 c15 -2 27 -9 27 -17 0 -8 -12 -15 -27 -17 -20 -2 -29 -9 -31 -25 -3 -18 -11 -22 -51 -25 -40 -2 -47 0 -44 13 6 20 -22 43 -45 37 -13 -4 -17 1 -17 21 0 21 -6 27 -30 31 -24 4 -30 10 -30 30 0 18 -6 26 -25 30 -17 3 -25 12 -25 25 0 14 -8 21 -30 25 l-30 5 0 80 c0 74 -2 80 -22 83 -18 3 -22 11 -25 51 -2 40 0 47 13 44 20 -6 43 22 36 46 -3 14 0 17 14 14 26 -7 51 16 46 43 -3 16 0 20 14 17 10 -3 19 -16 21 -32z"/>
 <path d="M7157 2854 c-4 -4 -7 -15 -7 -25 0 -12 -9 -19 -27 -21 l-28 -3 -3 -109 c-3 -113 4 -136 39 -136 14 0 19 -9 21 -47 2 -39 7 -50 26 -58 12 -5 22 -17 22 -25 0 -21 20 -40 41 -40 9 0 19 -9 22 -21 3 -11 15 -23 26 -26 12 -3 21 -13 21 -22 0 -22 19 -41 41 -41 11 0 19 -9 21 -22 2 -16 11 -24 30 -26 19 -2 28 -10 30 -25 3 -19 10 -22 55 -25 48 -3 52 -5 55 -30 3 -26 5 -27 63 -27 l60 0 0 30 c0 23 -5 31 -22 33 -15 2 -23 10 -23 23 0 18 9 19 188 19 l187 0 0 -52 c0 -51 1 -53 30 -58 29 -5 30 -7 30 -55 0 -44 3 -50 22 -53 19 -3 22 -10 25 -60 3 -54 5 -57 30 -60 19 -2 28 -10 30 -25 2 -18 10 -22 38 -22 l35 0 0 60 c0 58 -1 60 -27 63 -27 3 -27 5 -30 80 -3 76 -3 77 -30 80 -28 3 -28 4 -28 77 0 73 0 74 28 77 24 3 27 7 27 38 l0 35 -52 3 c-45 3 -52 6 -55 25 -2 16 -11 23 -30 25 l-28 3 0 188 0 189 24 4 c19 4 22 1 18 -14 -6 -24 17 -51 39 -45 12 3 15 0 12 -14 -7 -26 16 -51 43 -46 16 3 20 0 17 -13 -6 -21 21 -44 44 -38 16 4 18 -3 15 -69 -4 -78 8 -108 37 -100 13 3 15 -4 12 -40 -4 -50 13 -77 45 -70 17 3 20 0 16 -15 -6 -25 17 -50 43 -46 16 4 20 -1 20 -21 0 -19 6 -27 25 -31 17 -3 25 -12 25 -25 0 -14 8 -21 30 -25 24 -4 30 -10 30 -30 l0 -25 120 0 120 0 0 115 0 115 -27 3 c-19 2 -28 10 -30 25 -2 15 -11 23 -30 25 -21 3 -27 9 -30 30 -3 25 -7 27 -55 30 -45 3 -52 6 -55 25 -3 20 -9 22 -85 25 l-83 3 0 133 0 134 48 4 c44 3 48 1 44 -18 -4 -25 21 -48 46 -42 15 4 18 1 15 -16 -5 -26 20 -50 45 -44 13 4 18 0 18 -15 -1 -28 28 -45 49 -27 12 10 15 27 13 64 -3 44 -6 51 -25 54 -15 2 -23 11 -25 30 -2 21 -9 28 -30 30 -19 2 -28 10 -30 25 -3 21 -7 22 -123 22 -116 0 -120 -1 -123 -22 -2 -14 -11 -23 -25 -25 -16 -2 -23 -11 -25 -30 -2 -20 -9 -28 -22 -28 -13 0 -20 8 -22 28 -2 21 -9 28 -30 30 -19 2 -28 10 -30 25 -3 21 -8 22 -88 22 -80 0 -85 -1 -88 -22 -2 -15 -11 -23 -30 -25 l-27 -3 -3 -194 c-3 -206 1 -226 44 -218 17 3 20 0 16 -15 -4 -16 -17 -18 -137 -18 -131 0 -134 0 -137 23 -2 14 -11 23 -25 25 -19 3 -22 10 -25 55 -3 48 -5 52 -30 55 l-28 3 0 103 c0 101 1 104 24 108 19 4 22 1 18 -14 -6 -23 17 -51 37 -45 13 3 15 -4 13 -43 -5 -60 10 -72 80 -68 l53 3 0 35 c0 31 -3 35 -27 38 -25 3 -27 7 -30 55 -3 48 -5 52 -30 55 -21 3 -27 9 -30 30 -2 19 -10 28 -25 30 -14 2 -23 11 -25 25 -3 21 -8 22 -93 22 l-90 0 -3 -52 c-3 -44 -6 -53 -22 -53 -13 0 -20 8 -22 28 -2 21 -9 28 -30 30 -19 2 -28 10 -30 25 -3 20 -9 22 -83 25 -45 1 -84 0 -88 -4z m156 -134 c-7 -27 16 -53 43 -47 16 3 20 0 17 -13 -6 -21 21 -44 44 -38 16 4 18 -1 15 -44 -4 -52 11 -82 37 -75 13 3 15 -4 12 -40 -4 -50 13 -77 43 -71 20 4 21 1 18 -74 -3 -68 -6 -78 -22 -78 -13 0 -20 9 -22 28 -2 19 -9 28 -25 30 -15 2 -23 11 -25 30 -2 21 -9 28 -30 30 -19 2 -28 10 -30 25 -2 15 -11 23 -30 25 -21 3 -27 9 -30 30 -2 19 -10 28 -25 30 -14 2 -23 11 -25 25 -2 15 -11 23 -30 25 -27 3 -27 4 -30 85 -3 76 -5 82 -25 85 -15 2 -23 10 -23 22 0 17 9 20 73 23 39 1 73 4 74 5 0 1 -1 -7 -4 -18z m1130 -280 c-7 -27 16 -53 43 -47 16 3 20 0 17 -13 -6 -21 22 -44 46 -37 14 3 17 0 14 -14 -7 -24 16 -52 36 -46 11 2 16 -3 16 -17 0 -19 -5 -21 -47 -18 -37 3 -48 8 -48 21 0 22 -19 41 -41 41 -11 0 -19 9 -21 23 -2 14 -11 23 -25 25 -20 3 -23 9 -23 47 0 33 4 45 18 48 9 3 18 5 19 6 0 0 -1 -8 -4 -19z"/>
 </g>
<g id="layer9" fill="#eba680" stroke="none">
 <path d="M8067 3814 c-4 -4 -7 -15 -7 -25 0 -16 -12 -19 -112 -21 l-113 -3 -3 -57 -3 -57 -107 -3 c-102 -3 -107 -4 -110 -25 -3 -19 -10 -22 -60 -25 -54 -3 -57 -5 -60 -30 -3 -25 -7 -27 -55 -30 l-52 -3 -3 -52 -3 -52 -52 -3 c-48 -3 -52 -5 -55 -30 -3 -21 -9 -27 -30 -30 -27 -3 -27 -3 -27 -88 l0 -85 55 0 c52 0 55 1 58 27 l3 28 197 2 197 3 3 27 3 27 112 3 c107 3 112 4 115 25 3 21 8 22 110 25 l107 3 3 27 c3 25 7 27 55 30 l52 3 3 52 c3 48 5 52 30 55 21 2 28 9 30 30 3 27 4 27 85 30 76 3 82 5 85 25 2 15 11 23 30 25 27 3 27 3 27 88 l0 85 -251 3 c-138 1 -253 -1 -257 -4z"/>
 <path d="M0 2380 l0 -991 88 3 c81 3 87 5 90 25 2 14 11 23 25 25 15 2 23 11 25 30 2 19 10 28 25 30 15 2 24 12 28 33 9 39 9 1651 0 1690 -4 21 -13 31 -28 33 -15 2 -23 11 -25 30 -2 19 -10 28 -25 30 -14 2 -23 11 -25 25 -3 20 -9 22 -90 25 l-88 3 0 -991z"/>
 <path d="M3326 3312 c-3 -5 -6 -123 -6 -263 l-1 -254 25 -3 c16 -2 26 -10 28 -24 4 -29 33 -46 56 -32 11 7 18 27 20 58 l3 46 42 0 c34 0 44 -4 52 -22 7 -16 19 -23 38 -23 l29 0 -2 172 -1 172 28 3 c27 3 28 5 28 58 l0 55 -57 3 c-53 3 -57 5 -60 30 l-3 27 -107 3 c-58 1 -109 -1 -112 -6z"/>
 <path d="M10097 3314 c-4 -4 -7 -18 -7 -30 0 -18 -6 -23 -31 -26 l-32 -3 -1 -875 -1 -875 32 -3 c31 -3 32 -5 35 -55 l3 -52 115 0 c111 0 115 1 118 22 2 14 11 23 25 25 l22 3 3 592 2 592 28 3 c21 2 27 8 27 28 0 23 -4 25 -52 28 l-53 3 0 104 0 104 26 3 26 3 -1 139 c-1 77 -4 143 -7 148 -3 4 -14 8 -24 8 -13 0 -20 8 -22 28 -2 21 -9 28 -30 30 -21 3 -27 9 -30 30 -3 27 -4 27 -83 30 -45 1 -84 0 -88 -4z"/>
 <path d="M6657 3193 c-4 -3 -7 -80 -7 -169 l0 -163 -27 -3 c-19 -2 -29 -10 -34 -30 -9 -35 -5 -38 50 -38 38 0 48 -4 56 -22 6 -13 19 -27 31 -32 11 -5 25 -18 30 -29 5 -11 17 -25 28 -31 24 -14 68 -58 82 -82 6 -11 20 -23 32 -29 12 -5 22 -15 22 -21 0 -19 37 -46 60 -42 l21 3 -1 339 c0 186 -3 343 -6 347 -6 10 -327 12 -337 2z"/>
 <path d="M3324 2676 c-9 -24 3 -46 26 -46 30 0 28 -47 -2 -52 -21 -3 -23 -9 -26 -85 -3 -81 -3 -83 -28 -83 -46 0 -43 -61 4 -68 18 -3 21 -11 24 -55 2 -43 7 -54 26 -62 18 -8 22 -18 22 -52 0 -36 -3 -42 -22 -45 -16 -2 -24 -12 -28 -32 -3 -16 -3 -156 0 -310 l5 -281 140 0 140 0 3 52 c3 48 5 52 30 55 23 2 27 8 27 33 0 25 -4 30 -27 33 -26 3 -28 6 -28 53 0 45 2 49 24 49 32 0 34 5 42 89 7 76 -2 101 -37 101 -16 0 -19 8 -19 43 0 46 -13 67 -42 67 -15 0 -18 11 -20 78 -3 71 -5 77 -25 80 -19 3 -22 10 -25 60 -3 54 -5 57 -30 60 l-28 3 -2 162 -3 162 -58 3 c-44 2 -59 0 -63 -12z"/>
 <path d="M6823 2409 c-7 -7 -13 -32 -13 -56 0 -32 -4 -43 -15 -43 -8 0 -15 8 -15 18 0 37 -54 58 -78 30 -7 -9 -8 -158 -4 -463 l7 -450 27 -3 c19 -2 28 -10 30 -25 3 -21 8 -22 88 -22 80 0 85 1 88 22 2 15 11 23 30 25 l27 3 0 140 0 140 -27 3 c-22 3 -28 9 -28 27 0 18 6 24 28 27 l27 3 0 140 0 140 -27 3 c-22 3 -28 9 -28 27 0 18 6 24 28 27 25 3 27 7 30 55 3 45 6 52 25 55 32 4 32 62 0 66 -15 2 -23 11 -25 30 -2 21 -9 28 -30 30 -20 2 -28 9 -28 22 0 24 -5 27 -60 35 -31 4 -49 2 -57 -6z"/>
 <path d="M3604 1436 c-3 -7 -4 -33 -2 -57 3 -39 6 -44 30 -47 25 -3 27 -7 30 -55 3 -45 6 -52 25 -55 19 -3 22 -10 25 -60 3 -54 5 -57 30 -60 25 -3 27 -7 30 -55 3 -48 5 -52 30 -55 21 -3 27 -9 30 -30 2 -19 10 -28 25 -30 14 -2 23 -11 25 -25 2 -15 11 -23 30 -25 21 -3 27 -9 30 -30 2 -19 10 -28 25 -30 14 -2 23 -11 25 -25 2 -15 11 -23 30 -25 21 -3 27 -9 30 -30 2 -21 9 -28 30 -30 21 -3 27 -9 30 -30 l3 -27 107 -3 c102 -3 107 -4 110 -25 3 -19 10 -22 60 -25 53 -3 57 -5 60 -30 3 -25 7 -27 55 -30 48 -3 52 -5 55 -30 2 -21 9 -28 30 -30 19 -2 28 -10 30 -25 3 -20 9 -22 80 -25 75 -3 77 -3 80 -30 3 -27 4 -27 85 -30 81 -3 82 -3 85 -30 l3 -27 255 0 255 0 0 115 c0 111 -1 115 -22 118 -19 3 -22 10 -25 55 l-3 52 -57 3 -57 3 -3 57 c-3 50 -6 57 -25 60 -14 2 -23 11 -25 25 -2 15 -11 23 -30 25 -21 3 -27 9 -30 30 -2 21 -9 28 -30 30 -19 2 -28 10 -30 25 -3 19 -10 22 -55 25 -48 3 -52 5 -55 30 -2 21 -9 28 -30 30 -21 3 -27 9 -30 30 -2 19 -10 28 -25 30 -14 2 -23 11 -25 25 -3 20 -9 22 -85 25 -81 3 -82 3 -85 30 -2 21 -9 28 -30 30 -21 3 -27 9 -30 30 -3 27 -4 27 -85 30 -76 3 -82 4 -85 25 -3 19 -10 22 -55 25 -48 3 -52 5 -55 30 -3 25 -7 27 -55 30 -48 3 -52 5 -55 30 -3 27 -4 27 -85 30 -76 3 -82 4 -85 25 -3 22 -4 22 -256 25 -209 2 -253 0 -258 -12z"/>
 </g>
<g id="layer10" fill="#fbf383" stroke="none">
 <path d="M7207 3704 c-4 -4 -7 -42 -7 -85 0 -73 -1 -78 -22 -81 -21 -3 -23 -9 -26 -85 -3 -81 -3 -82 -30 -85 -19 -2 -28 -9 -30 -25 -3 -22 -8 -23 -77 -23 -69 0 -74 1 -77 23 -2 15 -11 23 -30 25 -21 3 -27 9 -30 30 -2 19 -10 28 -25 30 -19 3 -22 10 -25 55 -3 48 -5 52 -30 55 -25 3 -27 7 -30 55 -3 50 -4 52 -33 52 l-30 0 0 -90 0 -90 28 -3 c25 -3 27 -7 27 -48 l0 -44 -49 0 c-47 0 -50 2 -53 28 -3 27 -4 27 -85 30 l-82 3 -3 52 -3 52 -140 0 -140 0 0 -90 0 -90 52 -3 c45 -3 52 -6 55 -25 3 -19 10 -22 55 -25 48 -3 52 -5 55 -30 2 -21 9 -28 31 -30 19 -2 27 -9 27 -23 0 -18 -19 -19 -902 -21 l-903 -3 -3 -22 -3 -23 -477 -2 -477 -3 -3 -27 c-2 -16 -9 -28 -17 -28 -8 0 -15 12 -17 28 -3 24 -7 27 -38 27 l-35 0 -3 -164 c-3 -173 2 -195 42 -189 12 2 25 13 31 26 20 46 34 24 37 -60 3 -82 3 -83 30 -86 19 -2 28 -10 30 -25 2 -17 10 -22 33 -24 17 0 38 -2 48 -2 9 -1 17 -9 17 -19 0 -24 19 -42 45 -42 36 0 45 20 45 95 0 63 2 71 23 80 12 6 23 20 25 32 2 14 11 23 25 25 12 2 26 13 32 26 9 21 16 22 112 22 98 0 102 -1 105 -22 2 -15 11 -24 25 -26 15 -2 23 -11 25 -30 2 -21 9 -28 30 -30 21 -3 27 -9 30 -30 2 -21 9 -28 31 -30 25 -3 27 -6 27 -53 0 -37 4 -51 16 -56 22 -8 48 9 52 36 2 12 11 21 21 21 32 0 41 22 41 96 0 68 2 73 23 76 12 2 26 13 32 26 9 21 15 22 137 22 124 0 127 -1 130 -22 2 -15 11 -24 25 -26 15 -2 23 -11 25 -30 2 -21 9 -28 30 -30 25 -3 27 -7 30 -55 3 -48 5 -52 30 -55 21 -3 27 -9 30 -30 3 -25 7 -27 55 -30 48 -3 52 -5 55 -30 l3 -27 134 -3 c139 -3 161 3 161 39 0 17 8 19 70 19 61 0 70 -2 70 -18 0 -35 21 -42 130 -42 109 0 130 7 130 42 0 15 8 18 43 18 46 0 67 13 67 41 0 11 9 19 23 21 21 3 22 8 25 111 2 76 6 107 15 107 7 0 17 -10 22 -22 6 -13 20 -24 33 -26 13 -2 22 -10 22 -21 0 -22 19 -41 41 -41 11 0 19 -9 21 -22 2 -13 12 -27 24 -32 11 -5 25 -19 30 -30 7 -16 20 -22 57 -24 38 -2 47 -7 47 -21 0 -31 25 -42 82 -39 49 3 53 5 56 30 2 19 10 28 25 30 14 2 23 11 25 25 2 15 11 23 30 25 27 3 27 4 30 90 3 86 3 87 30 90 l27 3 3 168 2 167 163 0 c184 0 199 -3 212 -33 6 -12 20 -23 33 -25 26 -4 30 -32 4 -32 -35 0 -42 -21 -42 -131 0 -125 4 -131 82 -129 29 1 85 1 123 1 63 -1 71 -3 80 -23 6 -13 20 -24 33 -26 13 -2 22 -10 22 -21 0 -25 24 -43 52 -39 20 3 23 9 26 56 l3 52 73 0 c66 0 74 -2 79 -21 3 -11 15 -23 26 -26 12 -3 21 -13 21 -23 0 -32 23 -39 135 -37 l110 2 3 27 c3 21 9 27 30 30 19 2 28 10 30 26 3 20 9 22 70 22 60 0 68 -2 77 -22 6 -13 20 -24 33 -26 13 -2 22 -10 22 -21 0 -48 73 -56 78 -9 2 19 10 28 25 30 14 2 23 11 25 26 3 21 7 22 105 22 96 0 103 -1 112 -22 6 -13 20 -24 33 -26 13 -2 22 -10 22 -21 0 -23 25 -45 42 -38 9 3 13 -9 13 -44 0 -39 -3 -49 -17 -49 -10 0 -18 9 -20 23 -2 15 -11 23 -30 25 -21 3 -27 9 -30 30 -2 21 -9 28 -30 30 -21 3 -27 9 -30 30 -3 26 -5 27 -63 27 l-60 0 -3 -139 c-2 -97 1 -143 10 -153 9 -11 30 -14 88 -11 66 3 76 1 73 -13 -6 -20 20 -42 44 -37 10 2 22 13 28 25 8 18 19 23 60 25 46 3 50 5 53 30 3 21 9 27 30 30 26 3 27 5 27 63 0 58 -1 60 -27 63 l-28 3 0 105 c0 96 1 104 19 104 17 0 20 -8 23 -47 2 -39 7 -50 26 -58 21 -9 22 -16 22 -111 0 -109 7 -127 52 -123 12 1 58 1 100 1 76 -2 77 -2 80 -29 3 -24 8 -28 33 -28 25 0 30 4 33 28 2 19 9 27 22 27 13 0 20 -8 22 -27 3 -25 7 -28 38 -28 31 0 35 3 38 27 l3 28 332 2 332 3 3 27 c3 25 7 27 60 30 50 3 57 6 60 25 2 14 11 23 25 25 22 3 22 4 22 238 l0 235 -175 0 -175 0 -3 -27 -3 -28 -392 -2 -392 -3 -3 -27 -3 -28 -269 0 -269 0 -3 28 -3 27 -307 3 -307 2 -3 28 -3 27 -222 3 c-221 2 -222 2 -225 25 -2 16 -11 23 -30 25 -28 3 -28 4 -28 82 0 78 0 79 28 82 21 2 28 9 30 30 3 25 7 27 55 30 48 3 52 5 52 28 0 23 -4 25 -52 28 l-52 3 -3 112 -3 112 -30 3 c-17 2 -34 0 -38 -4z"/>
 <path d="M274 3187 c-3 -8 -4 -49 -2 -93 3 -78 3 -79 30 -82 l28 -3 2 -192 c3 -189 3 -192 25 -195 15 -2 23 -11 25 -30 l3 -27 175 0 175 0 3 28 c2 19 9 27 22 27 13 0 20 -8 22 -27 l3 -28 90 0 90 0 0 60 c0 58 -1 60 -27 63 -21 3 -27 9 -30 30 -3 25 -7 27 -55 30 -48 3 -52 5 -55 30 -2 21 -9 28 -30 30 -47 6 -35 32 15 32 34 0 44 -4 52 -22 9 -20 18 -23 63 -23 46 0 52 -2 52 -20 0 -32 20 -45 65 -45 44 0 65 13 65 41 0 14 10 19 48 21 38 2 49 7 57 26 9 21 14 22 165 22 151 0 156 -1 165 -22 6 -13 20 -24 32 -26 14 -2 23 -11 25 -25 2 -12 13 -26 26 -32 12 -5 22 -17 22 -26 0 -28 23 -38 80 -36 l55 2 3 56 c2 47 6 58 23 62 11 3 23 15 26 26 5 20 13 21 107 21 95 0 102 -1 111 -22 6 -13 20 -24 32 -26 13 -2 23 -12 25 -24 2 -12 10 -26 20 -31 27 -17 48 9 48 59 l0 44 73 0 c65 0 73 -2 82 -22 6 -13 20 -24 32 -26 13 -2 23 -12 25 -24 2 -12 10 -26 20 -31 27 -17 48 9 48 59 0 37 3 44 20 44 17 0 20 -7 20 -43 0 -46 13 -67 41 -67 14 0 19 -10 21 -47 2 -39 7 -50 26 -58 18 -8 22 -18 22 -55 0 -49 13 -70 41 -70 11 0 19 -9 21 -22 3 -20 10 -23 51 -26 72 -5 79 6 77 107 -1 47 -2 129 -1 182 1 92 2 97 24 101 38 6 62 -2 72 -25 8 -17 20 -23 58 -25 38 -2 47 -7 47 -21 0 -26 24 -43 57 -39 22 2 29 9 31 31 3 27 6 28 67 31 21 1 33 8 40 24 8 18 18 22 51 22 33 0 43 -4 47 -20 7 -26 33 -36 52 -20 13 11 15 43 13 204 l-3 191 -1523 3 c-1266 2 -1523 0 -1528 -11z"/>
 <path d="M1127 2744 c-4 -4 -7 -18 -7 -31 0 -18 -5 -23 -25 -23 -15 0 -28 -7 -32 -16 -8 -22 10 -49 33 -49 12 0 21 -9 24 -25 5 -22 11 -25 57 -28 48 -3 52 -5 55 -30 2 -21 9 -28 30 -30 19 -2 28 -10 30 -25 2 -14 11 -23 25 -25 15 -2 23 -11 25 -30 l3 -27 90 0 90 0 3 82 c3 81 3 82 30 85 26 3 27 6 27 58 0 53 -1 55 -30 60 -24 4 -30 10 -30 30 l0 25 -196 3 c-107 1 -198 -1 -202 -4z"/>
 <path d="M2979 1573 c0 -5 0 -31 1 -60 1 -50 0 -52 -27 -55 -20 -2 -29 -9 -31 -25 -3 -21 -9 -22 -85 -25 -81 -3 -82 -3 -85 -30 -3 -25 -7 -27 -55 -30 -48 -3 -52 -5 -55 -30 -3 -25 -7 -27 -55 -30 -45 -3 -52 -6 -55 -25 -3 -19 -10 -22 -60 -25 -54 -3 -57 -5 -60 -30 -2 -19 -10 -28 -25 -30 -21 -3 -22 -8 -22 -93 l0 -90 175 0 175 0 3 27 c3 27 4 27 85 30 76 3 82 5 85 25 2 14 11 23 25 25 14 2 23 11 25 26 2 13 10 22 21 22 22 0 41 19 41 42 0 17 13 18 158 18 110 0 162 4 170 12 7 7 12 41 12 83 0 63 2 71 23 80 19 9 22 18 22 65 0 52 -1 55 -27 58 -22 3 -27 9 -30 35 l-3 32 -172 3 c-95 1 -173 -1 -174 -5z"/>
 </g>
<g id="layer11" fill="#f6d991" stroke="none">
 <path d="M6755 3951 c-6 -5 -21 -11 -35 -13 l-25 -3 0 -150 0 -150 28 -3 c25 -3 27 -7 27 -46 0 -45 13 -66 41 -66 14 0 19 -10 21 -47 2 -39 7 -50 26 -58 12 -5 22 -17 22 -25 0 -20 20 -40 40 -40 8 0 20 -10 25 -22 9 -21 16 -23 95 -23 80 0 85 1 88 22 2 15 11 23 30 25 27 3 27 4 30 85 3 76 4 82 25 85 20 3 22 10 27 93 3 50 3 115 0 145 l-5 55 -52 3 c-48 3 -52 5 -55 30 -2 21 -9 28 -30 30 -25 3 -28 7 -28 43 l0 39 -143 0 c-79 0 -147 -4 -152 -9z"/>
 <path d="M7373 3461 c-4 -16 -14 -21 -57 -23 -47 -3 -51 -5 -54 -30 -3 -21 -9 -27 -30 -30 l-27 -3 0 -92 c0 -115 19 -126 23 -13 2 69 5 80 20 80 23 0 42 19 42 42 0 15 8 18 43 18 46 0 67 13 67 41 0 26 -21 34 -27 10z"/>
 <path d="M3316 3202 c-4 -7 -9 -343 -6 -406 0 -5 7 -3 15 4 12 10 15 46 15 206 0 172 -6 224 -24 196z"/>
 <path d="M6647 3203 c-11 -10 -8 -51 4 -58 6 -4 13 2 16 14 5 20 11 21 165 21 l160 0 -3 -387 c-4 -385 -4 -388 17 -397 11 -5 25 -19 30 -30 5 -12 19 -22 32 -24 19 -3 22 -9 22 -51 0 -49 12 -71 41 -71 9 0 19 -9 22 -21 3 -11 15 -23 26 -26 16 -4 21 -15 23 -57 3 -47 5 -51 30 -54 25 -3 27 -7 30 -55 3 -45 6 -52 26 -55 21 -3 22 -6 22 -130 0 -122 -1 -128 -22 -137 -20 -9 -23 -18 -23 -65 l0 -55 1385 0 1385 0 0 560 0 560 -30 0 c-23 0 -31 -5 -33 -22 -3 -19 -10 -22 -60 -25 -54 -3 -57 -5 -60 -30 l-3 -28 -332 -2 -332 -3 -3 -27 c-2 -20 -9 -28 -22 -28 -13 0 -20 8 -22 28 -3 24 -7 27 -38 27 -31 0 -35 -3 -38 -27 -2 -16 -9 -28 -17 -28 -8 0 -15 12 -17 28 -3 27 -4 27 -81 30 -94 3 -107 -4 -107 -63 0 -44 19 -71 42 -62 10 3 12 -7 9 -40 -4 -50 13 -77 45 -70 17 3 20 0 16 -15 -6 -25 17 -50 44 -45 17 3 20 0 16 -15 -9 -35 16 -48 92 -48 74 0 96 10 96 41 0 13 11 18 48 21 l47 3 0 -46 c0 -39 -3 -45 -18 -41 -24 6 -49 -18 -45 -42 4 -21 1 -21 -158 -18 l-163 3 -3 47 c-3 40 -6 47 -25 50 -19 3 -22 10 -25 60 -3 54 -5 57 -30 60 -27 3 -27 5 -30 80 -3 71 -5 77 -25 80 -15 2 -23 11 -25 30 -3 24 -7 27 -38 27 -31 0 -35 -3 -38 -27 -3 -26 -6 -28 -53 -28 -50 0 -55 -4 -61 -45 -2 -16 3 -20 28 -20 24 0 30 -4 26 -18 -6 -24 18 -49 44 -44 16 3 20 0 17 -13 -6 -21 21 -44 44 -38 16 4 18 -5 18 -101 l0 -106 -107 3 c-95 3 -108 5 -108 21 0 22 -19 41 -41 41 -9 0 -19 9 -22 21 -3 11 -15 23 -26 26 -11 3 -21 15 -23 27 -2 14 -11 22 -30 24 -21 3 -27 9 -30 30 -2 21 -9 28 -30 30 -25 3 -27 7 -30 55 -3 45 -6 52 -25 55 -21 3 -22 9 -25 85 -3 81 -3 82 -30 85 -19 2 -28 10 -30 25 -2 15 -11 23 -30 25 -21 3 -27 9 -30 30 -2 19 -10 28 -25 30 -15 2 -23 11 -25 30 -3 24 -7 27 -38 27 l-35 0 -3 -194 c-3 -206 1 -226 44 -218 16 3 20 0 17 -13 -7 -26 22 -42 70 -39 40 4 43 2 39 -18 -3 -15 -13 -23 -31 -25 -25 -3 -26 -5 -29 -81 -3 -86 7 -111 42 -105 20 4 21 0 21 -76 0 -80 0 -81 27 -84 24 -3 26 -8 30 -51 3 -44 2 -47 -19 -43 -13 2 -23 13 -25 26 -2 14 -11 22 -30 24 -25 3 -27 7 -30 60 -3 50 -6 57 -25 60 -20 3 -23 9 -23 46 0 45 -13 66 -42 66 -15 0 -18 8 -18 43 0 24 -5 48 -12 55 -19 19 -372 17 -388 -3 -17 -20 -9 -48 18 -60 38 -17 26 -35 -22 -35 -41 0 -45 2 -48 28 -3 25 -7 27 -55 30 -45 3 -52 6 -55 25 -2 15 -11 23 -30 25 -19 2 -28 10 -30 25 -2 15 -11 23 -30 25 -21 3 -27 9 -30 30 -2 19 -10 28 -25 30 -14 2 -23 11 -25 25 -2 15 -11 23 -30 25 -21 3 -27 9 -30 30 -2 19 -10 28 -25 30 -19 3 -22 10 -25 55 -3 48 -5 52 -30 55 l-28 3 0 105 c0 104 0 104 24 104 29 0 33 5 37 44 l4 30 -62 -3 -63 -2 0 110 0 110 28 3 c23 3 27 8 27 33 0 25 -4 31 -27 33 -19 2 -28 10 -30 25 -2 13 -13 24 -28 28 -32 9 -365 11 -373 2z"/>
 <path d="M275 3018 c-3 -7 -4 -337 -3 -733 l3 -720 570 0 570 0 3 23 c2 12 10 22 17 22 7 0 15 -10 17 -22 3 -23 4 -23 178 -23 174 0 175 0 178 23 l3 22 529 0 529 0 3 -22 c3 -23 3 -23 221 -26 l217 -2 0 -24 c0 -31 22 -48 57 -44 35 4 37 22 2 26 -36 4 -39 26 -39 308 0 261 1 259 -72 253 -41 -4 -43 -2 -43 21 0 23 -4 25 -55 30 -51 5 -55 7 -55 30 0 18 -6 26 -25 30 -17 3 -25 12 -25 25 0 16 -7 20 -35 20 l-35 0 -3 -77 -3 -76 -47 -4 c-45 -3 -47 -2 -47 22 0 24 -2 25 -85 30 -83 5 -85 6 -85 30 0 20 -6 26 -30 30 -29 5 -30 7 -30 55 0 48 -1 50 -30 55 -24 4 -30 10 -30 30 0 18 -6 26 -25 30 -24 5 -25 8 -25 80 l0 75 -30 5 c-24 4 -30 10 -30 30 0 23 -4 25 -55 30 -51 5 -55 7 -55 30 0 20 -6 26 -30 30 -29 5 -30 7 -30 55 0 49 -1 50 -30 50 l-30 0 0 -140 c0 -136 1 -140 23 -150 18 -8 22 -18 22 -50 0 -44 13 -65 42 -65 15 0 18 -9 18 -50 0 -47 -2 -50 -25 -50 -47 0 -44 -61 4 -68 13 -2 21 -11 21 -23 0 -16 -7 -19 -48 -19 -46 0 -48 1 -47 28 0 26 -2 27 -60 32 -52 4 -60 8 -60 25 0 13 -8 22 -25 25 -19 4 -25 11 -25 30 0 20 -6 26 -30 30 -24 4 -30 10 -30 30 0 20 -6 26 -30 30 -22 4 -30 11 -30 25 0 13 -8 22 -25 25 -19 4 -25 11 -25 30 0 20 -6 26 -30 30 -29 5 -30 7 -30 55 0 48 -1 50 -30 53 l-30 3 3 105 c4 128 2 135 -35 125 -26 -7 -28 -11 -31 -65 l-3 -57 -32 3 c-29 3 -32 1 -29 -22 5 -32 20 -50 43 -50 16 0 19 -11 21 -107 3 -101 4 -109 26 -118 39 -17 26 -34 -30 -37 -49 -3 -53 -5 -56 -30 -3 -21 -9 -27 -30 -30 -25 -3 -27 -7 -30 -51 -3 -52 9 -77 39 -77 11 0 19 -9 21 -22 2 -16 11 -24 30 -26 21 -3 27 -9 30 -30 2 -19 10 -28 25 -30 14 -2 23 -11 25 -25 2 -16 11 -23 31 -25 l27 -3 0 -105 c0 -93 -2 -104 -18 -104 -23 0 -42 -19 -42 -41 0 -15 -12 -18 -78 -21 -75 -3 -78 -2 -74 18 6 30 -21 47 -70 43 -40 -4 -43 -2 -43 20 0 50 -66 53 -73 3 -3 -18 -11 -21 -76 -24 -68 -3 -72 -2 -68 18 6 31 -21 46 -76 42 -41 -2 -48 0 -45 13 7 25 -23 41 -70 38 -39 -4 -43 -2 -39 17 5 25 -21 48 -47 41 -14 -3 -17 0 -14 14 7 24 -16 52 -36 46 -13 -3 -16 6 -16 47 0 50 0 51 -32 54 -32 3 -33 5 -33 50 0 43 2 47 25 47 16 0 25 -6 25 -16 0 -20 26 -43 39 -35 5 4 11 -6 13 -21 2 -22 9 -29 30 -31 21 -3 27 -9 30 -30 2 -21 9 -28 30 -30 19 -2 28 -10 30 -25 2 -14 11 -23 25 -25 15 -2 23 -11 25 -30 3 -26 5 -27 68 -27 60 0 65 2 68 23 5 30 -16 55 -42 50 -20 -4 -21 0 -21 76 l0 81 -30 5 -30 5 0 80 c0 77 -1 80 -25 85 -23 5 -25 10 -25 55 0 48 -1 50 -30 55 -29 5 -30 7 -30 55 0 49 -1 50 -31 53 -27 3 -30 6 -26 27 3 18 -1 26 -14 31 -11 3 -26 9 -35 14 -23 12 -28 4 -22 -36 l6 -34 -76 0 c-75 0 -76 0 -79 28 -3 24 -7 27 -38 27 -31 0 -35 -3 -38 -27 l-3 -28 -159 0 -159 0 -3 28 c-2 19 -9 28 -25 30 -22 3 -23 5 -25 195 l-3 192 -33 3 c-20 2 -34 -2 -37 -10z"/>
 <path d="M2809 2861 c0 -3 0 -28 1 -56 2 -55 13 -75 41 -75 14 0 19 -9 21 -47 2 -39 7 -50 26 -58 21 -9 22 -16 22 -110 0 -102 7 -125 40 -125 8 0 20 -10 25 -22 6 -13 20 -24 33 -26 13 -2 22 -10 22 -21 0 -28 21 -41 66 -41 36 0 43 -3 46 -21 4 -31 32 -46 53 -29 13 10 15 29 13 94 -3 75 -5 81 -25 84 -21 3 -22 9 -25 85 -3 81 -3 82 -30 85 l-28 3 0 103 c0 78 -4 106 -15 116 -23 19 -50 8 -53 -23 -3 -21 -9 -27 -27 -27 -18 0 -24 6 -27 28 -3 25 -7 27 -55 30 -44 3 -52 6 -55 25 -2 15 -12 23 -35 28 -18 4 -33 4 -34 0z"/>
 <path d="M4117 2804 c-4 -4 -7 -18 -7 -30 0 -17 -7 -23 -27 -26 l-28 -3 0 -145 0 -145 27 -3 c25 -3 27 -7 30 -55 3 -45 6 -52 25 -55 15 -2 23 -11 25 -30 2 -21 9 -28 30 -30 21 -3 27 -9 30 -30 3 -25 7 -27 55 -30 45 -3 52 -6 55 -25 4 -32 59 -31 73 1 5 12 17 22 26 22 29 0 40 26 37 82 -3 49 -5 53 -30 56 l-27 3 -3 107 -3 107 -27 3 c-25 3 -27 7 -30 55 -3 45 -6 52 -25 55 -15 2 -23 11 -25 30 -2 21 -9 28 -30 30 -21 3 -27 9 -30 30 -3 25 -7 27 -58 30 -31 2 -59 0 -63 -4z"/>
 <path d="M4737 2804 c-4 -4 -7 -18 -7 -30 0 -17 -7 -23 -27 -26 -22 -2 -29 -9 -31 -30 -2 -19 -10 -28 -25 -30 -20 -3 -22 -9 -22 -63 0 -55 2 -60 23 -63 20 -3 22 -8 22 -76 0 -74 9 -96 41 -96 9 0 19 -9 22 -21 3 -11 15 -23 26 -26 12 -3 21 -13 21 -22 0 -22 19 -41 41 -41 11 0 19 -9 21 -22 2 -16 11 -24 30 -26 19 -2 28 -10 30 -25 3 -20 9 -22 63 -22 54 0 60 2 63 22 2 15 11 23 30 25 23 2 27 8 27 33 0 25 -4 31 -27 33 l-27 3 -3 137 -3 137 -27 3 c-21 3 -27 9 -30 30 -2 19 -10 28 -25 30 -19 3 -22 10 -25 55 l-3 52 -57 3 c-53 3 -57 5 -60 30 -2 20 -9 28 -28 30 -14 2 -29 0 -33 -4z"/>
 <path d="M7714 2751 c-2 -2 -4 -28 -4 -56 0 -57 16 -81 48 -73 15 4 18 1 14 -18 -4 -21 -10 -24 -53 -24 l-48 0 -3 53 c-3 45 -6 52 -25 55 -15 2 -23 11 -25 30 -3 24 -7 27 -38 27 l-35 0 -3 -109 c-3 -116 5 -141 42 -134 19 4 21 0 17 -39 -3 -48 13 -77 40 -70 12 3 15 0 12 -12 -9 -35 19 -42 163 -39 l139 3 0 30 c0 25 -4 30 -27 33 l-28 3 -2 167 -3 167 -88 5 c-49 3 -91 3 -93 1z"/>
 <path d="M1857 2744 c-11 -11 -8 -49 5 -62 7 -7 20 -12 29 -12 14 0 19 -10 21 -47 2 -39 7 -50 26 -58 18 -8 22 -18 22 -50 0 -44 13 -65 42 -65 11 0 18 -7 18 -18 0 -23 19 -42 41 -42 9 0 19 -9 22 -21 3 -11 15 -23 26 -26 12 -3 21 -13 21 -22 0 -22 19 -41 41 -41 10 0 19 -9 21 -21 4 -30 33 -47 55 -33 14 9 18 25 18 70 0 58 -1 59 -30 64 l-30 5 0 75 0 75 -30 5 c-29 5 -30 7 -30 60 0 50 -2 55 -25 60 -17 3 -25 12 -25 25 0 14 -8 21 -30 25 -24 4 -30 10 -30 30 0 24 -2 25 -85 28 -47 1 -89 0 -93 -4z"/>
 <path d="M3154 2736 c-10 -25 0 -51 24 -61 20 -9 22 -17 22 -80 0 -73 10 -95 41 -95 14 0 19 -10 21 -47 3 -46 4 -48 33 -48 l30 0 3 82 c3 76 4 82 25 85 17 2 22 10 22 33 0 24 -5 31 -23 33 -21 3 -23 8 -20 55 l3 52 -88 3 c-70 2 -88 0 -93 -12z"/>
 <path d="M7154 2736 c-10 -25 0 -51 24 -61 20 -9 22 -17 22 -80 0 -73 10 -95 41 -95 9 0 19 -9 22 -21 3 -11 15 -23 26 -26 12 -3 21 -13 21 -22 0 -21 19 -41 40 -41 8 0 20 -10 25 -22 6 -13 20 -24 32 -26 14 -2 23 -11 25 -25 2 -12 13 -26 26 -32 12 -5 22 -17 22 -26 0 -23 25 -41 52 -37 22 3 23 7 23 93 l0 90 -27 3 c-25 3 -27 7 -30 55 -3 45 -6 52 -25 55 -19 3 -22 10 -25 60 -3 54 -5 57 -30 60 -19 2 -28 10 -30 25 -2 15 -11 23 -30 25 -21 3 -27 9 -30 30 -3 27 -4 27 -86 30 -65 2 -83 0 -88 -12z"/>
 <path d="M6527 2684 c-4 -4 -7 -15 -7 -25 0 -11 -9 -19 -22 -21 -17 -2 -24 -11 -26 -30 -3 -26 -6 -28 -53 -28 -45 0 -49 2 -49 24 0 32 -4 34 -70 37 -53 3 -55 2 -58 -25 -4 -32 13 -56 39 -56 11 0 19 -9 21 -22 2 -13 13 -27 26 -33 18 -8 22 -18 22 -50 0 -43 13 -65 40 -65 8 0 20 -10 25 -22 6 -13 20 -24 32 -26 19 -3 22 -10 25 -55 2 -41 7 -54 24 -61 11 -5 25 -19 30 -30 11 -25 46 -32 63 -13 8 11 11 82 9 258 l-3 244 -30 3 c-17 2 -34 0 -38 -4z"/>
 <path d="M3828 2645 c-2 -2 -1 -32 2 -67 4 -52 9 -65 26 -72 11 -5 25 -19 30 -30 5 -12 19 -22 32 -24 22 -3 22 -6 22 -132 l0 -129 -27 -3 c-22 -2 -29 -9 -31 -30 l-3 -27 -107 -3 -107 -3 0 -55 c0 -49 2 -55 22 -58 19 -3 22 -10 25 -60 l3 -57 57 -3 57 -3 3 -52 c3 -45 6 -52 25 -55 21 -3 22 -8 25 -110 l3 -107 90 0 c86 0 90 1 93 23 l3 23 312 -1 311 -1 -3 53 c-3 55 -14 78 -37 78 -8 0 -14 8 -14 18 0 23 -19 42 -42 42 -31 0 -22 38 10 42 l27 3 3 107 c3 102 4 107 25 110 15 2 23 11 25 30 3 21 9 27 30 30 23 2 27 8 27 33 0 25 -4 31 -27 33 -19 2 -28 10 -30 25 -2 14 -11 23 -25 25 -21 3 -23 9 -24 60 -2 168 -2 167 -31 170 l-28 3 0 83 c0 45 -2 85 -5 88 -3 3 -20 2 -38 -1 -39 -8 -44 -27 -37 -155 5 -90 5 -91 33 -94 27 -3 27 -4 27 -77 0 -73 0 -74 -27 -77 -26 -3 -28 -7 -31 -50 l-3 -48 -43 0 c-45 0 -66 -13 -66 -42 0 -27 -38 -23 -42 5 -2 12 -13 26 -25 32 -12 5 -23 19 -25 30 -3 17 -12 20 -60 23 -50 3 -57 6 -60 25 -2 14 -11 23 -25 25 -15 2 -23 11 -25 30 -2 21 -9 28 -30 30 -21 3 -27 9 -30 30 -2 21 -9 28 -30 30 -27 3 -27 5 -30 80 -3 71 -5 77 -25 80 -16 2 -23 11 -25 35 -3 29 -6 32 -35 29 -28 -3 -32 0 -35 24 -2 20 -10 30 -30 35 -15 4 -28 6 -30 4z"/>
 <path d="M6005 2641 c-23 -5 -31 -12 -33 -33 -3 -25 -7 -27 -55 -30 -48 -3 -52 -5 -55 -30 l-3 -28 -109 0 -109 0 -3 28 -3 27 -85 0 -85 0 -3 -27 -3 -28 -129 0 -129 0 -3 28 c-3 26 -5 27 -63 27 l-60 0 0 -35 c0 -29 4 -36 23 -38 22 -3 22 -5 22 -157 0 -152 0 -154 -22 -157 -16 -2 -24 -11 -26 -30 -3 -21 -9 -27 -30 -30 -21 -2 -28 -9 -30 -30 -3 -26 -7 -28 -47 -28 -40 0 -44 2 -47 28 -2 21 -9 28 -30 30 -21 3 -27 9 -30 30 -3 24 -7 27 -38 27 l-35 0 0 -230 0 -230 85 0 85 0 3 28 3 27 335 0 334 0 0 -24 c0 -19 -6 -25 -27 -28 -20 -2 -29 -9 -31 -25 l-3 -23 -362 -2 -362 -3 0 -30 0 -30 540 0 540 0 3 28 c2 15 9 27 17 27 8 0 15 -12 17 -27 3 -25 7 -28 43 -28 36 0 40 3 43 28 2 15 7 27 12 27 5 0 10 -12 12 -27 2 -22 9 -29 30 -31 19 -2 28 -10 30 -25 3 -22 4 -22 255 -25 l252 -2 3 -28 c3 -23 8 -27 33 -27 l30 0 0 310 0 310 -25 0 c-16 0 -28 -8 -35 -22 -5 -12 -19 -23 -30 -25 -11 -2 -24 -13 -30 -25 -5 -13 -17 -23 -27 -23 -13 0 -18 11 -20 48 -3 40 -6 47 -25 50 -15 2 -23 11 -25 30 -2 21 -9 28 -30 30 -25 3 -27 7 -30 55 -3 48 -5 52 -30 55 -21 3 -27 9 -30 30 -2 19 -10 28 -25 30 -19 3 -22 10 -25 55 -3 48 -5 52 -30 55 -19 2 -28 10 -30 25 -2 14 -11 23 -25 25 -19 3 -22 10 -25 60 l-3 57 -59 0 c-45 0 -61 -4 -70 -17 -14 -23 3 -52 33 -56 20 -3 21 -8 21 -131 0 -131 6 -151 42 -151 17 0 18 -14 18 -210 0 -196 -1 -210 -18 -210 -30 0 -42 -21 -42 -72 0 -41 -3 -48 -20 -48 -13 0 -20 7 -20 18 0 29 -21 42 -67 42 -35 0 -43 3 -43 18 0 28 -20 42 -60 42 -27 0 -38 5 -45 23 -6 12 -20 23 -32 25 -14 2 -23 10 -23 21 0 22 -19 41 -42 41 -10 0 -18 5 -18 12 0 15 -82 98 -97 98 -9 0 -13 21 -13 70 0 62 2 70 19 70 10 0 21 -9 24 -21 3 -11 15 -23 26 -26 16 -4 21 -15 23 -57 3 -47 5 -51 30 -54 19 -2 28 -10 30 -25 2 -15 11 -23 30 -25 21 -3 27 -9 30 -30 3 -25 7 -27 55 -30 48 -3 52 -5 55 -30 3 -26 6 -27 58 -27 l55 0 0 230 0 230 -23 3 c-23 3 -23 5 -21 143 0 77 -1 141 -2 143 -2 1 -17 0 -34 -3z"/>
 <path d="M1577 2634 c-4 -4 -7 -15 -7 -25 0 -12 -9 -19 -27 -21 -28 -3 -28 -4 -31 -85 l-3 -83 -74 0 c-69 0 -74 1 -77 23 -2 12 -12 26 -24 31 -11 5 -25 19 -30 30 -5 12 -19 22 -31 24 -14 2 -23 10 -23 21 0 30 -25 42 -77 39 -44 -3 -48 -5 -51 -31 -4 -32 15 -60 35 -53 8 3 13 -2 13 -13 0 -24 25 -45 45 -37 13 4 15 -7 15 -72 0 -80 9 -102 42 -102 15 0 18 -11 20 -77 3 -69 5 -79 25 -88 17 -7 23 -19 25 -55 3 -41 6 -45 30 -48 21 -3 27 -9 30 -30 2 -19 10 -28 25 -30 15 -2 23 -11 25 -30 3 -25 6 -27 60 -30 50 -3 57 -6 60 -25 3 -21 8 -22 116 -25 97 -2 113 0 119 14 8 22 -10 49 -33 48 -17 0 -19 6 -16 48 4 56 -11 82 -44 75 -16 -3 -20 0 -17 13 6 21 -22 44 -45 38 -15 -4 -18 -1 -15 16 7 32 -20 49 -69 45 -41 -4 -43 -2 -43 21 0 20 -6 26 -30 30 -22 4 -30 11 -30 25 0 17 -8 20 -52 23 l-53 3 0 50 0 49 129 0 c97 0 131 3 140 14 8 9 11 57 9 147 l-3 134 -25 3 c-14 2 -29 0 -33 -4z"/>
 <path d="M3607 2634 c-4 -4 -7 -18 -7 -30 0 -17 -7 -23 -27 -26 -48 -5 -40 -78 8 -78 17 0 19 -9 19 -98 0 -101 7 -122 42 -122 11 0 18 -7 18 -18 0 -33 22 -42 96 -42 77 0 101 13 91 49 -3 14 0 17 12 14 23 -6 43 20 39 49 -2 15 -11 25 -28 28 -23 5 -25 10 -25 55 0 48 -1 50 -30 55 -22 4 -30 11 -30 25 0 14 -8 21 -30 25 -24 4 -30 10 -30 30 0 18 -6 26 -25 30 -19 4 -25 11 -25 30 0 21 -5 26 -30 28 -17 2 -34 0 -38 -4z"/>
 <path d="M8496 2521 c-3 -5 1 -14 8 -20 16 -13 32 2 21 19 -8 12 -22 13 -29 1z"/>
 <path d="M6997 2234 c-4 -4 -7 -29 -7 -55 0 -45 -2 -48 -27 -51 -24 -3 -28 -8 -28 -33 0 -25 4 -30 28 -33 l27 -3 0 -134 0 -134 -27 -3 c-24 -3 -28 -8 -28 -33 0 -25 4 -31 27 -33 l27 -3 3 -107 c3 -107 3 -107 28 -107 20 0 26 6 28 27 3 27 4 27 84 30 79 3 82 4 89 30 4 15 4 29 1 32 -3 3 -43 6 -89 6 -76 0 -83 2 -83 20 0 17 8 19 83 22 76 3 82 5 85 25 2 15 11 23 30 25 25 3 27 7 30 56 3 57 -8 82 -39 82 -16 0 -19 10 -21 78 -3 69 -5 78 -25 87 -19 8 -23 18 -23 50 0 44 -13 65 -41 65 -11 0 -19 9 -21 23 -2 15 -11 23 -30 25 -19 2 -28 10 -30 25 -3 22 -36 35 -51 21z"/>
 <path d="M3377 1454 c-4 -4 -7 -18 -7 -30 0 -16 -7 -24 -22 -26 -21 -3 -23 -9 -26 -85 l-3 -83 -167 -2 -167 -3 -3 -27 c-3 -21 -9 -27 -30 -30 -23 -2 -27 -8 -27 -33 0 -30 1 -30 57 -33 l58 -3 2 -502 3 -502 22 -3 c15 -2 23 -11 25 -30 2 -21 9 -28 31 -30 16 -2 27 -9 27 -18 0 -12 16 -14 93 -12 l92 3 3 42 3 42 52 3 52 3 3 52 3 52 52 3 52 3 3 52 c3 48 5 52 30 55 27 3 27 4 30 85 l3 82 52 3 52 3 2 275 c2 151 0 318 -5 370 -6 88 -9 95 -29 98 -19 3 -22 10 -25 55 -3 48 -5 52 -30 55 -25 3 -27 7 -30 60 l-3 57 -111 3 c-60 1 -113 -1 -117 -4z"/>
 </g>
<g id="layer12" fill="#fffffe" stroke="none">
 <path d="M2 3658 l3 -303 77 -3 c70 -3 77 -5 80 -25 2 -14 11 -23 25 -25 15 -2 23 -11 25 -30 2 -21 9 -28 30 -30 21 -3 27 -9 30 -30 l3 -27 1519 -3 c1114 -1 1522 1 1532 9 8 7 14 31 14 60 l0 48 100 3 c96 3 100 2 100 -18 0 -33 24 -46 75 -42 l45 3 0 -83 c0 -67 3 -84 16 -89 22 -8 48 9 52 35 l3 22 472 2 472 3 10 23 10 22 891 0 c965 0 920 -3 912 52 -2 16 -11 24 -30 26 -21 3 -27 9 -30 30 -3 25 -7 27 -55 30 -45 3 -52 6 -55 25 -3 19 -10 22 -55 25 l-53 3 0 75 0 74 125 0 125 0 0 -43 c0 -24 5 -48 12 -55 7 -7 42 -12 85 -12 64 0 73 -2 73 -18 0 -29 21 -42 71 -42 58 0 71 14 67 77 -3 43 -6 48 -29 51 -26 3 -26 3 -32 124 -4 67 -7 165 -7 219 l0 98 27 3 c17 2 29 10 31 21 3 16 -163 17 -3382 17 l-3386 0 2 -302z"/>
 <path d="M7037 3953 c-12 -11 -8 -68 5 -81 7 -7 20 -12 30 -12 11 0 18 -7 18 -18 0 -29 21 -42 67 -42 l43 0 0 -43 c0 -46 13 -67 42 -67 16 0 18 -11 18 -104 0 -121 5 -129 77 -124 45 3 48 5 51 33 3 29 5 30 43 27 45 -5 69 10 69 42 0 19 5 21 45 18 48 -4 75 9 75 37 0 14 13 16 96 13 114 -4 124 2 124 69 l0 48 113 3 c108 3 112 4 115 26 l3 22 244 0 243 0 4 -75 c3 -71 2 -75 -18 -75 -25 0 -49 -24 -39 -40 4 -6 -21 -10 -73 -10 -83 0 -111 -13 -98 -45 4 -11 -1 -15 -18 -15 -34 0 -49 -23 -44 -70 l4 -40 -47 0 c-49 0 -76 -18 -65 -45 5 -13 -10 -15 -98 -15 -78 0 -106 -4 -116 -15 -6 -8 -9 -19 -5 -25 4 -7 -30 -10 -103 -10 -114 0 -142 -10 -128 -45 5 -13 -20 -15 -188 -15 -159 0 -196 -3 -206 -15 -7 -8 -10 -21 -7 -29 4 -10 -2 -16 -21 -18 -30 -3 -41 -30 -22 -53 10 -12 52 -15 226 -15 199 0 214 -1 214 -18 0 -40 13 -42 322 -42 285 0 298 -1 298 -19 0 -39 17 -41 301 -39 l274 3 3 27 3 28 392 2 392 3 3 27 3 28 167 2 167 3 3 53 c2 42 6 52 21 52 23 0 41 19 41 45 0 19 5 20 75 17 67 -3 75 -6 75 -24 0 -13 10 -24 30 -31 18 -7 30 -19 30 -29 0 -10 11 -24 25 -30 25 -11 25 -12 25 -138 0 -85 4 -130 12 -138 7 -7 31 -12 55 -12 35 0 43 -3 43 -18 0 -23 19 -42 42 -42 15 0 18 -8 18 -43 0 -46 13 -67 42 -67 11 0 18 -7 18 -19 0 -30 25 -42 77 -39 45 3 48 5 53 33 4 24 10 30 30 30 20 0 26 5 28 30 l3 30 269 -3 c251 -2 270 -4 270 -20 0 -33 22 -42 97 -42 64 0 73 -2 73 -18 0 -22 19 -42 40 -42 8 0 20 -10 25 -22 8 -19 19 -24 58 -26 37 -2 47 -7 47 -21 0 -22 19 -41 41 -41 11 0 19 -9 21 -22 2 -13 12 -27 24 -32 11 -5 25 -19 30 -30 5 -12 19 -22 32 -24 13 -2 22 -10 22 -21 0 -22 19 -41 42 -41 15 0 18 -8 18 -44 0 -46 19 -72 45 -62 13 5 15 104 15 841 l0 835 -2453 0 c-1350 0 -2457 -3 -2460 -7z"/>
 <path d="M10367 2634 c-4 -4 -7 -269 -7 -589 l0 -582 -25 -11 c-14 -6 -25 -18 -25 -26 0 -12 -21 -15 -105 -18 l-105 -3 0 45 c0 49 -13 70 -41 70 -12 0 -19 9 -21 28 l-3 27 -1377 3 -1377 2 -3 23 c-4 32 -59 32 -73 0 -9 -21 -17 -23 -80 -23 -73 0 -95 -10 -95 -42 0 -10 -7 -18 -16 -18 -9 0 -21 -13 -27 -30 -6 -16 -17 -30 -23 -30 -7 0 -21 -11 -32 -24 -16 -21 -29 -25 -90 -28 -61 -2 -72 -1 -72 13 0 22 -26 43 -44 36 -10 -4 -16 2 -18 21 -2 16 -12 31 -25 37 -13 5 -23 20 -25 35 l-3 25 -252 3 -252 2 -3 23 c-2 15 -11 23 -30 25 -21 3 -27 9 -30 30 -2 21 -8 27 -28 27 -20 0 -26 -6 -28 -27 -3 -22 -9 -28 -27 -28 -18 0 -24 6 -27 28 -3 23 -8 27 -33 27 -25 0 -30 -4 -33 -27 l-3 -28 -612 0 c-337 0 -754 -1 -927 -3 l-315 -2 -3 -22 c-3 -22 -8 -23 -78 -23 -60 0 -74 3 -74 15 0 9 -11 21 -25 27 -14 6 -25 19 -25 28 0 20 -19 40 -40 40 -8 0 -20 10 -25 22 -6 13 -20 24 -32 26 -20 3 -23 9 -23 51 0 32 -5 53 -16 62 -21 17 -48 0 -52 -33 -2 -19 -8 -25 -21 -21 -28 7 -42 -21 -39 -74 3 -44 5 -48 31 -51 21 -3 27 -9 27 -27 0 -18 -4 -23 -15 -19 -27 11 -45 -16 -45 -65 l0 -46 -101 3 c-111 4 -132 -4 -127 -47 l3 -26 367 -3 367 -2 3 -23 c3 -20 9 -22 85 -25 81 -3 82 -3 85 -30 3 -25 7 -27 55 -30 48 -3 52 -5 55 -30 3 -25 7 -27 55 -30 45 -3 52 -6 55 -25 3 -20 9 -22 85 -25 81 -3 82 -3 85 -30 2 -21 9 -28 30 -30 21 -3 27 -9 30 -30 3 -27 4 -27 85 -30 76 -3 82 -4 85 -25 2 -14 11 -23 25 -25 15 -2 23 -11 25 -30 2 -21 9 -28 30 -30 21 -3 27 -9 30 -30 3 -25 7 -27 55 -30 45 -3 52 -6 55 -25 2 -15 11 -23 30 -25 21 -3 27 -9 30 -30 2 -21 9 -28 30 -30 19 -2 28 -10 30 -25 2 -14 11 -23 25 -25 19 -3 22 -10 25 -60 l3 -57 57 -3 57 -3 3 -52 c3 -45 6 -52 26 -55 21 -3 22 -7 22 -108 l0 -104 -245 0 c-199 0 -245 3 -245 13 0 31 -35 47 -103 47 -50 0 -67 4 -67 13 0 29 -36 47 -94 47 -50 0 -61 3 -78 25 -11 14 -26 25 -34 25 -8 0 -14 6 -14 13 0 24 -36 47 -73 47 -24 0 -37 5 -37 13 0 25 -36 47 -74 47 -29 0 -43 6 -58 25 -18 23 -25 25 -111 25 -86 0 -93 2 -102 23 -6 12 -19 26 -31 31 -11 5 -25 18 -30 29 -5 11 -17 25 -28 31 -23 14 -68 58 -82 82 -6 10 -18 22 -28 28 -24 14 -68 59 -82 82 -6 11 -20 23 -32 29 -17 7 -22 19 -22 46 0 45 -32 79 -58 62 -15 -9 -17 -41 -20 -311 l-2 -301 -53 -3 -52 -3 -3 -82 c-3 -81 -3 -82 -30 -85 -25 -3 -27 -7 -30 -55 l-3 -52 -52 -3 -52 -3 -3 -52 -3 -52 -52 -3 -52 -3 -3 -52 -3 -53 4316 0 4315 0 -2 813 -3 812 -100 0 -100 0 -5 30 c-4 24 -10 30 -30 30 -19 0 -26 6 -30 25 l-5 25 -393 0 -392 0 0 22 c0 16 7 22 28 25 24 3 27 7 27 38 l0 35 -80 0 c-77 0 -80 1 -85 25 -4 19 -12 25 -30 25 -20 0 -26 6 -30 30 -5 29 -7 30 -55 30 l-50 0 -5 55 c-5 51 -7 55 -30 55 -19 0 -26 6 -30 25 -4 18 -13 26 -32 28 l-28 3 -2 252 -3 252 -55 3 c-31 2 -59 0 -63 -4z"/>
 <path d="M1407 1624 c-4 -4 -7 -16 -7 -26 0 -17 -26 -18 -562 -20 l-563 -3 -3 -27 c-3 -21 -9 -27 -30 -30 -21 -2 -28 -9 -30 -30 -2 -19 -10 -28 -25 -30 -14 -2 -23 -11 -25 -25 -3 -20 -10 -22 -80 -25 l-77 -3 -3 -703 -2 -702 1582 2 c1575 3 1583 3 1583 23 0 14 -8 21 -27 23 -19 2 -28 10 -30 25 -2 12 -13 26 -25 32 l-23 10 0 491 c0 410 -2 493 -14 503 -9 8 -43 11 -93 9 -72 -3 -78 -5 -81 -25 -3 -21 -9 -22 -85 -25 -81 -3 -82 -3 -85 -30 l-3 -28 -160 0 -159 0 0 74 c0 70 1 75 23 78 15 2 23 11 25 30 3 25 7 27 60 30 50 3 57 6 60 25 3 19 10 22 55 25 48 3 52 5 55 30 3 25 7 27 55 30 48 3 52 5 55 30 3 27 4 27 85 30 76 3 82 5 85 25 2 15 11 23 30 25 25 3 27 7 30 56 4 66 -8 82 -62 82 -33 0 -43 4 -51 23 l-10 22 -540 0 -540 0 -3 -22 c-3 -23 -5 -23 -160 -23 -153 0 -157 1 -167 23 -10 22 -44 34 -58 21z"/>
 </g>

</svg>